<?xml version="1.0" encoding="utf-8"?>
<!-- Generator: Adobe Illustrator 16.0.0, SVG Export Plug-In . SVG Version: 6.00 Build 0)  -->
<!DOCTYPE svg PUBLIC "-//W3C//DTD SVG 1.1//EN" "http://www.w3.org/Graphics/SVG/1.1/DTD/svg11.dtd">
<svg version="1.1" xmlns="http://www.w3.org/2000/svg" xmlns:xlink="http://www.w3.org/1999/xlink" x="0px" y="0px" width="350px"
	 height="324px" viewBox="0 0 350 324" enable-background="new 0 0 350 324" xml:space="preserve">
<g id="Layer_1">
	<path fill="#E3E3E3" d="M46.11,86.492l-0.281,0.325l-0.451,0.074l-0.406-0.141"/>
	<path fill="#E3E3E3" d="M54.597,95.925l-0.421-0.222l-0.244-0.185l-0.155-0.34l-0.326-2.965l0.096-0.443l3.682-3.416l0.31-0.229
		l0.444,0.133l4.362,3.43l1.589,1.996l-6.232,1.885l-2.609,0.48L54.597,95.925z"/>
	<path fill="#E3E3E3" d="M208.367,312.769l-2.522,0.979l-0.997-2.094l-0.218-0.437l-0.31-0.346l-1.032-0.416l-0.726-0.081
		l-1.452,0.099l-1.297,0.228l-6.53-0.744l-7.029-3.71l-0.69-0.644l-6.92-0.808l-18.611-0.681l-0.734-0.107l-0.943-0.472
		l-0.625-0.744l-0.109-0.473l-0.119-1.033l-0.236-0.435l-0.462-0.347l-0.453-0.225l-1.442-0.118l-0.752,0.072l-9.696,2.131
		l-0.49,0.183l-5.896-1.569l-8.925-9.768l-0.317-0.355l0.091-0.544l0.443-0.263l4.744-2.05l8.517,0.825l0.699,0.062l0.562,0.192
		l0.48,0.308l3.792,1.506l5.731,1.37l0.798-0.101l0.253-0.408l0.028-0.479l-0.028-4.863l-0.308-0.354l-5.37-3.646l-0.735,0.063
		l-0.744,0.617l-1.08,2.259l-0.353,0.916l-0.689,0.707l-0.5,0.272l-0.644,0.027l-21.105-2.305l-1.289-0.253l-0.917-0.491
		l-0.607-0.716l-6.349-9.251l-2.73-4.362l-11.21-13.134l-1.07-0.961l-0.472-0.236l-0.553-0.28l-0.534-0.101l-0.808-0.045
		l-1.288,0.217l-1.714,0.472l-0.708-0.026l-0.544-0.191l-0.389-0.325l-0.31-0.336l-3.174-4.545l-3.002-4.734l-0.208-0.398
		l-2.06-5.833l-3.564-9.687l-0.236-0.408l-0.272-0.398l-3.374-2.477l-3.61-0.599l-0.616-0.108l-0.381-0.291l-0.136-0.479
		l-1.996-12.762L66.44,200.6l-0.019-1.098l0.662-4.272l1.57-1.514l1.904,2.657l0.672,0.734l5.876,3.492l4.68,2.477l3.718,1.949
		l0.844,0.481l0.571,0.762l0.146,0.481l0.09,1.061l-0.036,0.57l0.29,3.185l0.317,1.487l0.797,2.821l0.236,0.889l0.237,0.407
		l0.599,0.753l0.489-0.263l6.485-14.041l0.19-0.497l-0.145-0.473l-3.773-1.742l-0.536-0.198l-0.707-0.063l-0.508,0.218l-0.163,0.444
		l-2.277-0.154l-15.192-12.391l-1.858-2.739l0.389-1.515l0.146-1.088l0.082-1.197l-0.154-1.578l-0.182-1.006l-0.852-2.703
		l-0.653-1.251l-4.88-7.42l-0.372-0.362l-10.856-7.637l-8.535-11.355l-8.199-14.395L30.977,121.4l-4.273-7.21l-3.99-6.631
		l-0.191-0.425l0.119-0.582l0.163-0.399l0.272-0.444l0.362-0.915l0.246-0.999l-0.109-0.472l-2.086-8.208l-0.345-0.961l-0.182-0.39
		l-0.907-1.633l-1.397-1.288l-1.66-8.354l0.172-0.462l2.25-2.204l0.462-0.218l1.987-0.136l1.016-0.39l0.734-0.617l0.263-0.399
		l0.172-0.526l0.372-1.542l0.318-2.729l-0.618-5.66l5.197-2.667l18.639,1.651l0.626,0.127l0.454,0.226l3.618,2.368l3.084,2.295
		l1.343,0.744l1.678,0.599l1.46,0.099l12.79-1.732l4.389,3.075l1.587,0.581l16.535,4.018l18.085,8.089l10.304,4.681l25.323,9.152
		l1.688,0.507l0.68,0.155l2.74,0.236l11.963,0.871l2.359,0.1l1.377-0.082l2.513-0.399l1.242-0.264l2.758-0.826l1.579-0.598
		l4.798,2.45l1.813,0.96l-0.435-2.648l0.009-0.525l0.327-0.318l6.231-4.735l0.407-0.217l5.106-1.524l1.522,0.037l2.014,0.253
		l1.09,0.391l0.462,0.227l0.427,0.317l0.316,0.299l0.845,1.705l0.788,2.223l-0.099,0.59l-0.781,0.499l-0.182,0.471l0.201,0.445
		l0.472,0.236l1.069,0.372l3.483,0.354l6.993,0.109l0.389-0.28l-0.217-0.4l-1.651-1.668l-0.752-0.598l-0.464-0.245l-0.534-0.181
		l-1.216-0.254l-1.551-0.018l-2.095-0.245l-0.536-0.181l-0.934-0.499l-0.436-0.363l-0.254-0.345l-0.236-0.925l-0.081-2.802
		l0.091-0.527l0.327-0.362l2.947-1.86l0.942-0.444l0.526-0.218l11.854-4.054l0.699-0.063l5.532,1.388l1.679,0.499l1.605,0.616
		l1.224,0.245l1.396,0.154l2.096-0.154l1.623-0.471l13.379-2.213l4.798,3.528l4.218-1.387l1.822-0.98l0.39-0.317l1.017-1.089
		l1.515-1.705l2.06-2.503l2.484-3.41l0.399-0.871l0.979-1.633l0.363-0.272l1.423-0.698l0.626-0.145l4.808-0.998l0.525,0.164
		l1.216,1.469l0.218,0.362l0.616,0.708l0.363,0.327l7.61,2.231l1.306,0.19l2.013-0.172l0.627-0.1l2.166-0.662l1.479-0.69
		l0.962-0.536l0.997-0.907l1.198-1.46l0.787-1.152l0.473-0.871l0.48-1.369l0.354-0.988l0.318-2.023l0.397-0.879l0.781-0.553
		l0.417-0.309l0.436-0.145l0.617-0.145l2.095,0.208l1.451,0.309l4.834,1.777l11.883,6.704l0.389,0.298l4.263,4.282l2.903,4.797
		l0.607,0.726l0.744,1.116l0.479,0.87l-0.081,1.062l-2.204,6.286l-1.016,2.748l-0.552,1.324l-0.646,1.288l-0.871,1.696l-0.244,0.925
		l-0.035,1.17l0.226,1.542l0.381,1.488l0.236,0.399l0.688,0.679l2.304,1.751l0.917,1.061l0.152,0.481l-0.279,5.541l-2.521,7.593
		l-1.034,2.095l-0.155,0.463l-0.181,1.042l0.644,5.733l0.063,0.534l0.398,0.935l0.536,0.762l0.988,1.052l0.708,1.17l0.29,0.952
		l0.072,1.098l-0.072,0.562l-1.842,9.596l-1.45,3.973l-0.727,1.197l-0.244,1.577l0.146,1.089l2.775,18.231l0.753,1.868l0.779,1.133
		l0.943,1.043l1.17,0.899l0.78,0.58l0.707,0.625l0.309,0.381l0.255,0.427l0.053,8.417l-0.152,1.043l-0.246,0.408l-1.225,1.442
		l-1.271,1.388l-1.206,0.88L331.746,197l-0.698-0.102l-2.35-1.795l-0.382-2.022l1.597-1.18l0.735-0.698l0.235-0.454l0.164-0.997
		l0.589-4.426l-5.924-11.917l-0.216-0.454l-3.021-4.118l-0.317-0.363l-0.617-0.109l-0.617,0.109l-0.345,0.317l-8.289,13.578
		l-0.236,0.391l-0.254,0.997l-6.059,33.95l-0.317,0.317l-3.438,2.603l-0.518,0.227l-1.017,4.78l0.98,3.646l0.036,1.679l-0.072,3.492
		l-2.06,1.777l-0.979,0.518l-1.289,0.742l-0.897,0.646l-0.625,0.616l-0.508,0.771l-3.175,7.899L291.837,248l0.245,0.463l0.708,0.598
		l0.472,0.245l0.644,0.117l2.223,0.2l1.368-0.154l0.409-0.3l-0.236-0.408l-1.115-0.344l-0.472-0.245l-0.39-0.345l-0.627-0.799
		l-0.081-0.436l0.183-0.471l0.326-0.362l1.205-0.817l0.635-0.117l0.709,0.135l0.488,0.19l4.174,2.087l0.48,0.237l0.416,0.279
		l1.552,2.668l0.135,0.408l0.537,5.432l-0.155,0.454l-0.417,0.325l-2.312,0.59l-0.491,0.3l-0.327,0.271l-0.489,0.845l-0.163,0.443
		l-0.489,5.732l0.145,0.473l0.235,0.381l2.114,3.265l2.177,3.773l-0.645,4.517l-0.163,0.499l-0.227,0.208l-0.826,0.019l-0.635-0.128
		l-0.635-0.198l-0.97-0.418l-4.518-2.947l-0.389-0.327l-0.31-0.39l-0.163-0.472l-0.063-0.517l-5.587,3.147l-3.202,3.474
		l-7.873-7.084l-5.586-8.362l-1.198-3.728l0.081-0.508l0.247-0.409l4.198-5.377l0.336-0.354l0.398-0.281l1.197-0.3l1.523,0.091
		l0.571,0.236l0.772,0.544l0.615,1.288l0.3,0.925l-0.336,0.943l-0.743,0.707l-0.571,0.681l-0.163,0.472l0.207,0.407l3.257,2.323
		l0.49,0.291l1.343,0.716l0.544,0.181l1.261,0.236l1.514-0.045l3.965-0.6l0.634-0.153l2.114-1.334l0.4-0.335l0.234-0.373
		l-6.648-7.653l-18.666-8.627l-1.016-0.354l-0.707-0.146l-0.735,0.055l-1.741,0.444l-4.127,1.715l-0.625,0.681l-0.209,0.417
		l-0.091,0.581l1.969,4.996l0.797,1.189l0.907,1.052l0.917,1.65l0.153,0.463l-0.108,0.534l-1.542,2.367l-0.979,0.509l-1.062,0.391
		l-2.901,0.815l-3.384,0.907l-0.635-0.109l-0.545-0.227l-0.316-0.309l-1.389-2.466l-0.127-0.49l0.146-0.518l0.336-0.336l0.49-0.208
		l0.644-0.136l0.553,0.199l0.399,0.354l-2.022-8.979l-4.808-2.422l-2.894-1.232l2.639,4.935l-0.67,3.954l-1.243,4.897l-2.829,1.66
		l-2.104,2.758l-2.232,6.249l-0.198,1.024l-0.02,0.589l0.072,0.535l0.146,0.472l1.605,2.884l0.272,0.953l0.072,0.509l-0.264,1.604
		l-0.798,2.34l-0.254,0.489l-0.254,0.346l-0.407,0.335l-1.479,0.68l-0.554,0.183l-0.635,0.082l-2.195-0.201l-1.106-0.354
		l-6.249-3.056l-4.853-3.792l-0.78-0.661l-0.616-0.663l-0.137-0.463l-0.072-0.535l0.227-2.186l-0.408-1.442l-0.255-0.426
		l-0.915-1.042l-0.398-0.382l-0.735,0.063l-0.381,0.272l-0.698,0.681l-0.816,1.242l-0.163,0.407l-0.408,2.088l-0.046,1.169
		l0.046,1.116l0.299,0.951l0.227,0.409l1.561,1.17l0.862,0.552l1.042,0.563l1.415,0.698l2.83,1.406l2.667,2.095l0.317,0.362
		l0.244,0.399l0.137,0.481l-0.265,0.416l-3.608,5.126l-4.345,4.933l-0.317,0.363l-4.108,8.808l-0.997,5.776l-0.173,0.482
		l-0.663,0.679l-1.197,0.727L208.367,312.769z"/>
	<path fill="#E3E3E3" d="M222.028,265.176l0.148-0.821l2.292-3.342l0.273-0.288l1.619-1.671l0.384-0.192l2.426,3.024l0.229,0.354
		l2.27,6.181l0.118,0.385l0.016,1.737l-0.207,0.82l-4.725,0.658L222.028,265.176z"/>
	<path fill="#E3E3E3" d="M218.361,287.887l-4.421,0.702l-3.652-5.529l4.665-4.695l6.743-6.136l0.332-0.296l0.569,0.074l0.518,0.503
		l3.801,7.23l0.177,0.82l-0.155,0.843l-2.81,7.104l-0.207,0.34l-0.605,0.466l-0.532,0.089L218.361,287.887z"/>
</g>
<g id="Layer_2">
	<circle fill="#C1272D" cx="113" cy="154" r="5"/>
	<circle fill="#C1272D" cx="253" cy="142" r="5"/>
	<circle fill="#C1272D" cx="180" cy="215" r="5"/>
	<line fill="none" stroke="#333333" x1="180" y1="207" x2="180" y2="38"/>
	<polyline fill="none" stroke="#333333" points="113,145 113,52 253,52 253,133 	"/>
	<text transform="matrix(1 0 0 1 164 29)" fill="#333333" font-family="'Helvetica'" font-size="16">Dots</text>
</g>
</svg>
