<?xml version="1.0" encoding="utf-8"?>
<!-- Generator: Adobe Illustrator 16.0.0, SVG Export Plug-In . SVG Version: 6.00 Build 0)  -->
<!DOCTYPE svg PUBLIC "-//W3C//DTD SVG 1.1//EN" "http://www.w3.org/Graphics/SVG/1.1/DTD/svg11.dtd">
<svg version="1.1" xmlns="http://www.w3.org/2000/svg" xmlns:xlink="http://www.w3.org/1999/xlink" x="0px" y="0px" width="350px"
	 height="387px" viewBox="0 0 350 387" enable-background="new 0 0 350 387" xml:space="preserve">
<g id="Layer_1">
	<path fill="none" stroke="#C7B299" stroke-width="2" d="M175.5,70c0,0-7.001,157.667,58.999,257.667"/>
	<path fill="none" stroke="#C7B299" stroke-width="2" d="M175.5,69.333c0,0,4.667,108.667,130.667,167.333"/>
	<path fill="none" stroke="#C7B299" stroke-width="2" d="M175.5,70c0,0,7,56,105,51"/>
	<path fill="none" stroke="#C7B299" stroke-width="2" d="M42.5,236c0,0,78,0,73,91"/>
	<path fill="none" stroke="#C7B299" stroke-width="2" d="M68.5,121c0,0,64,52,47,206"/>
	<path fill="none" stroke="#C7B299" stroke-width="2" d="M69.5,122c0,0,83,104,237,114"/>
	<text transform="matrix(1 0 0 1 46.5 30)"><tspan x="0" y="0" fill="#1A1A1A" font-family="'MyriadPro-Regular'" font-size="18">N</tspan><tspan x="12.222" y="0" fill="#1A1A1A" font-family="'MyriadPro-Regular'" font-size="18">o</tspan><tspan x="22.284" y="0" fill="#1A1A1A" font-family="'MyriadPro-Regular'" font-size="18">des</tspan></text>
	<text transform="matrix(1 0 0 1 144.5 367)" fill="#1A1A1A" font-family="'MyriadPro-Regular'" font-size="18">Links</text>
	<g>
		<g>
			<line fill="none" stroke="#1A1A1A" x1="70.5" y1="37" x2="70.5" y2="100.916"/>
			<g>
				<polygon fill="#1A1A1A" points="66.41,97.602 67.143,96.92 70.499,100.532 73.856,96.92 74.589,97.602 70.499,102 				"/>
			</g>
		</g>
	</g>
	<g>
		<g>
			<polyline fill="none" stroke="#1A1A1A" points="100.5,26 174.5,26 174.5,50.916 			"/>
			<g>
				<polygon fill="#1A1A1A" points="170.41,47.602 171.143,46.92 174.499,50.532 177.856,46.92 178.589,47.602 174.499,52 				"/>
			</g>
		</g>
	</g>
	<g>
		<g>
			<polyline fill="none" stroke="#1A1A1A" points="122.584,270 161.5,270 161.5,347 			"/>
			<g>
				<polygon fill="#1A1A1A" points="125.898,274.09 126.58,273.357 122.968,270.001 126.58,266.644 125.898,265.911 121.5,270.001 
									"/>
			</g>
		</g>
	</g>
	<g>
		<g>
			<polyline fill="none" stroke="#1A1A1A" points="205.416,289.5 166.5,289.5 166.5,347 			"/>
			<g>
				<polygon fill="#1A1A1A" points="202.102,285.41 201.42,286.143 205.031,289.499 201.42,292.856 202.102,293.589 206.5,289.499 
									"/>
			</g>
		</g>
	</g>
</g>
<g id="Layer_2">
	<g>
		<circle fill="#736357" cx="175.594" cy="68.92" r="8.575"/>
		<circle fill="#736357" cx="69.73" cy="119.692" r="8.575"/>
		<circle fill="#736357" cx="43.055" cy="235.111" r="8.575"/>
		<circle fill="#736357" cx="115.101" cy="325.888" r="8.575"/>
		<circle fill="#736357" cx="234.186" cy="326.237" r="8.575"/>
		<circle fill="#736357" cx="306.759" cy="235.902" r="8.575"/>
		<circle fill="#736357" cx="281.014" cy="120.054" r="8.575"/>
		<circle fill="#736357" cx="175.594" cy="68.92" r="8.575"/>
	</g>
</g>
</svg>
