<?xml version="1.0" encoding="utf-8"?>
<!-- Generator: Adobe Illustrator 16.0.0, SVG Export Plug-In . SVG Version: 6.00 Build 0)  -->
<!DOCTYPE svg PUBLIC "-//W3C//DTD SVG 1.1//EN" "http://www.w3.org/Graphics/SVG/1.1/DTD/svg11.dtd">
<svg version="1.1" xmlns="http://www.w3.org/2000/svg" xmlns:xlink="http://www.w3.org/1999/xlink" x="0px" y="0px" width="350px"
	 height="768px" viewBox="0 0 350 768" enable-background="new 0 0 350 768" xml:space="preserve">
<g id="Layer_4">
	<g>
		<rect x="14.502" y="113.844" fill="none" stroke="#D9D9D9" width="300.995" height="224"/>
		<line fill="none" stroke="#D9D9D9" x1="315.497" y1="134.188" x2="14.502" y2="134.188"/>
		<line fill="none" stroke="#D9D9D9" x1="315.497" y1="154.531" x2="14.502" y2="154.531"/>
		<line fill="none" stroke="#D9D9D9" x1="315.497" y1="174.984" x2="14.502" y2="174.984"/>
		<line fill="none" stroke="#D9D9D9" x1="315.497" y1="195.328" x2="14.502" y2="195.328"/>
		<line fill="none" stroke="#D9D9D9" x1="315.497" y1="215.672" x2="14.502" y2="215.672"/>
		<line fill="none" stroke="#D9D9D9" x1="315.497" y1="236.016" x2="14.502" y2="236.016"/>
		<line fill="none" stroke="#D9D9D9" x1="315.497" y1="256.359" x2="14.502" y2="256.359"/>
		<line fill="none" stroke="#D9D9D9" x1="315.497" y1="276.703" x2="14.502" y2="276.703"/>
		<line fill="none" stroke="#D9D9D9" x1="315.497" y1="297.156" x2="14.502" y2="297.156"/>
		<line fill="none" stroke="#D9D9D9" x1="315.497" y1="317.5" x2="14.502" y2="317.5"/>
		<line fill="none" stroke="#D9D9D9" x1="34.564" y1="337.844" x2="34.564" y2="113.844"/>
		<line fill="none" stroke="#D9D9D9" x1="54.625" y1="337.844" x2="54.625" y2="113.844"/>
		<line fill="none" stroke="#D9D9D9" x1="74.687" y1="337.844" x2="74.687" y2="113.844"/>
		<line fill="none" stroke="#D9D9D9" x1="94.748" y1="337.844" x2="94.748" y2="113.844"/>
		<line fill="none" stroke="#D9D9D9" x1="114.81" y1="337.844" x2="114.81" y2="113.844"/>
		<line fill="none" stroke="#D9D9D9" x1="134.871" y1="337.844" x2="134.871" y2="113.844"/>
		<line fill="none" stroke="#D9D9D9" x1="154.933" y1="337.844" x2="154.933" y2="113.844"/>
		<line fill="none" stroke="#D9D9D9" x1="175.067" y1="337.844" x2="175.067" y2="113.844"/>
		<line fill="none" stroke="#D9D9D9" x1="195.129" y1="337.844" x2="195.129" y2="113.844"/>
		<line fill="none" stroke="#D9D9D9" x1="215.19" y1="337.844" x2="215.19" y2="113.844"/>
		<line fill="none" stroke="#D9D9D9" x1="235.251" y1="337.844" x2="235.251" y2="113.844"/>
		<line fill="none" stroke="#D9D9D9" x1="255.313" y1="337.844" x2="255.313" y2="113.844"/>
		<line fill="none" stroke="#D9D9D9" x1="275.374" y1="337.844" x2="275.374" y2="113.844"/>
		<line fill="none" stroke="#D9D9D9" x1="295.437" y1="337.844" x2="295.437" y2="113.844"/>
	</g>
	<g>
		<polyline fill="none" stroke="#D9D9D9" points="256.5,572.844 15.502,572.844 15.502,430.328 		"/>
		<line fill="none" stroke="#D9D9D9" x1="256.5" y1="430.328" x2="15.502" y2="430.328"/>
		<line fill="none" stroke="#D9D9D9" x1="256.5" y1="450.672" x2="15.502" y2="450.672"/>
		<line fill="none" stroke="#D9D9D9" x1="256.5" y1="471.016" x2="15.502" y2="471.016"/>
		<line fill="none" stroke="#D9D9D9" x1="256.5" y1="491.359" x2="15.502" y2="491.359"/>
		<line fill="none" stroke="#D9D9D9" x1="256.5" y1="511.703" x2="15.502" y2="511.703"/>
		<line fill="none" stroke="#D9D9D9" x1="256.5" y1="532.156" x2="15.502" y2="532.156"/>
		<line fill="none" stroke="#D9D9D9" x1="256.5" y1="552.5" x2="15.502" y2="552.5"/>
		<line fill="none" stroke="#D9D9D9" x1="35.564" y1="572.844" x2="35.564" y2="430.328"/>
		<line fill="none" stroke="#D9D9D9" x1="55.625" y1="572.844" x2="55.625" y2="430.328"/>
		<line fill="none" stroke="#D9D9D9" x1="75.687" y1="572.844" x2="75.687" y2="430.328"/>
		<line fill="none" stroke="#D9D9D9" x1="95.748" y1="572.844" x2="95.748" y2="430.328"/>
		<line fill="none" stroke="#D9D9D9" x1="115.81" y1="572.844" x2="115.81" y2="430.328"/>
		<line fill="none" stroke="#D9D9D9" x1="135.871" y1="572.844" x2="135.871" y2="430.328"/>
		<line fill="none" stroke="#D9D9D9" x1="155.933" y1="572.844" x2="155.933" y2="430.328"/>
		<line fill="none" stroke="#D9D9D9" x1="176.067" y1="572.844" x2="176.067" y2="430.328"/>
		<line fill="none" stroke="#D9D9D9" x1="196.129" y1="572.844" x2="196.129" y2="430.328"/>
		<line fill="none" stroke="#D9D9D9" x1="216.19" y1="572.844" x2="216.19" y2="430.328"/>
		<line fill="none" stroke="#D9D9D9" x1="236.251" y1="572.844" x2="236.251" y2="430.328"/>
		<line fill="none" stroke="#D9D9D9" x1="256.313" y1="572.844" x2="256.313" y2="430.328"/>
	</g>
	<g>
		<polyline fill="none" stroke="#D9D9D9" points="256.5,745.844 15.502,745.844 15.502,603.328 		"/>
		<line fill="none" stroke="#D9D9D9" x1="256.5" y1="603.328" x2="15.502" y2="603.328"/>
		<line fill="none" stroke="#D9D9D9" x1="256.5" y1="623.672" x2="15.502" y2="623.672"/>
		<line fill="none" stroke="#D9D9D9" x1="256.5" y1="644.016" x2="15.502" y2="644.016"/>
		<line fill="none" stroke="#D9D9D9" x1="256.5" y1="664.359" x2="15.502" y2="664.359"/>
		<line fill="none" stroke="#D9D9D9" x1="256.5" y1="684.703" x2="15.502" y2="684.703"/>
		<line fill="none" stroke="#D9D9D9" x1="256.5" y1="705.156" x2="15.502" y2="705.156"/>
		<line fill="none" stroke="#D9D9D9" x1="256.5" y1="725.5" x2="15.502" y2="725.5"/>
		<line fill="none" stroke="#D9D9D9" x1="35.564" y1="745.844" x2="35.564" y2="603.328"/>
		<line fill="none" stroke="#D9D9D9" x1="55.625" y1="745.844" x2="55.625" y2="603.328"/>
		<line fill="none" stroke="#D9D9D9" x1="75.687" y1="745.844" x2="75.687" y2="603.328"/>
		<line fill="none" stroke="#D9D9D9" x1="95.748" y1="745.844" x2="95.748" y2="603.328"/>
		<line fill="none" stroke="#D9D9D9" x1="115.81" y1="745.844" x2="115.81" y2="603.328"/>
		<line fill="none" stroke="#D9D9D9" x1="135.871" y1="745.844" x2="135.871" y2="603.328"/>
		<line fill="none" stroke="#D9D9D9" x1="155.933" y1="745.844" x2="155.933" y2="603.328"/>
		<line fill="none" stroke="#D9D9D9" x1="176.067" y1="745.844" x2="176.067" y2="603.328"/>
		<line fill="none" stroke="#D9D9D9" x1="196.129" y1="745.844" x2="196.129" y2="603.328"/>
		<line fill="none" stroke="#D9D9D9" x1="216.19" y1="745.844" x2="216.19" y2="603.328"/>
		<line fill="none" stroke="#D9D9D9" x1="236.251" y1="745.844" x2="236.251" y2="603.328"/>
		<line fill="none" stroke="#D9D9D9" x1="256.313" y1="745.844" x2="256.313" y2="603.328"/>
	</g>
	<polyline fill="none" stroke="#808080" points="14.5,337.844 315.5,337.844 315.5,113.844 	"/>
	<text transform="matrix(1 0 0 1 320.167 331.1777)" fill="#808080" font-family="'Helvetica'" font-size="11">$23</text>
	<text transform="matrix(1 0 0 1 320.167 310.9277)" fill="#808080" font-family="'Helvetica'" font-size="11">$24</text>
	<text transform="matrix(1 0 0 1 320.167 290.6777)" fill="#808080" font-family="'Helvetica'" font-size="11">$25</text>
	<text transform="matrix(1 0 0 1 320.167 270.9277)" fill="#808080" font-family="'Helvetica'" font-size="11">$26</text>
	<text transform="matrix(1 0 0 1 320.167 250.4277)" fill="#808080" font-family="'Helvetica'" font-size="11">$27</text>
	<text transform="matrix(1 0 0 1 320.167 229.9272)" fill="#808080" font-family="'Helvetica'" font-size="11">$28</text>
	<text transform="matrix(1 0 0 1 320.167 208.9272)" fill="#808080" font-family="'Helvetica'" font-size="11">$29</text>
	<text transform="matrix(1 0 0 1 320.167 188.9272)" fill="#808080" font-family="'Helvetica'" font-size="11">$30</text>
	<text transform="matrix(1 0 0 1 320.167 168.6772)" fill="#808080" font-family="'Helvetica'" font-size="11">$31</text>
	<text transform="matrix(1 0 0 1 320.167 148.4272)" fill="#808080" font-family="'Helvetica'" font-size="11">$32</text>
	<text transform="matrix(1 0 0 1 320.167 127.6772)" fill="#808080" font-family="'Helvetica'" font-size="11">$33</text>
	<text transform="matrix(1 0 0 1 16.167 351.9277)" fill="#333333" font-family="'Helvetica-Bold'" font-size="10">Jul</text>
	<text transform="matrix(1 0 0 1 94.667 351.9277)" fill="#333333" font-family="'Helvetica-Bold'" font-size="10">Aug</text>
	<text transform="matrix(1 0 0 1 152.917 351.9277)" fill="#333333" font-family="'Helvetica-Bold'" font-size="10">Sept</text>
	<text transform="matrix(1 0 0 1 195.667 351.9277)" fill="#333333" font-family="'Helvetica-Bold'" font-size="10">Oct</text>
	<text transform="matrix(1 0 0 1 276.417 351.9277)" fill="#333333" font-family="'Helvetica-Bold'" font-size="10">Nov</text>
</g>
<g id="Layer_2">
	<g>
		<line fill="none" stroke="#8CC63F" stroke-width="3" stroke-linecap="round" x1="39.66" y1="170.223" x2="49.643" y2="159.594"/>
		<line fill="none" stroke="#8CC63F" stroke-width="3" stroke-linecap="round" x1="39.676" y1="159.594" x2="49.66" y2="170.223"/>
	</g>
	<g>
		<line fill="none" stroke="#8CC63F" stroke-width="3" stroke-linecap="round" x1="39.66" y1="190.723" x2="49.643" y2="180.094"/>
		<line fill="none" stroke="#8CC63F" stroke-width="3" stroke-linecap="round" x1="39.676" y1="180.094" x2="49.66" y2="190.723"/>
	</g>
	<g>
		<line fill="none" stroke="#8CC63F" stroke-width="3" stroke-linecap="round" x1="39.66" y1="210.89" x2="49.643" y2="200.261"/>
		<line fill="none" stroke="#8CC63F" stroke-width="3" stroke-linecap="round" x1="39.676" y1="200.261" x2="49.66" y2="210.89"/>
	</g>
	<g>
		
			<line fill="none" stroke="#8CC63F" stroke-width="3" stroke-linecap="round" x1="200.16" y1="170.223" x2="210.143" y2="159.594"/>
		
			<line fill="none" stroke="#8CC63F" stroke-width="3" stroke-linecap="round" x1="200.176" y1="159.594" x2="210.16" y2="170.223"/>
	</g>
	<g>
		
			<line fill="none" stroke="#8CC63F" stroke-width="3" stroke-linecap="round" x1="200.16" y1="190.723" x2="210.143" y2="180.094"/>
		
			<line fill="none" stroke="#8CC63F" stroke-width="3" stroke-linecap="round" x1="200.176" y1="180.094" x2="210.16" y2="190.723"/>
	</g>
	<g>
		<line fill="none" stroke="#8CC63F" stroke-width="3" stroke-linecap="round" x1="200.16" y1="210.89" x2="210.143" y2="200.261"/>
		<line fill="none" stroke="#8CC63F" stroke-width="3" stroke-linecap="round" x1="200.176" y1="200.261" x2="210.16" y2="210.89"/>
	</g>
	<g>
		
			<line fill="none" stroke="#8CC63F" stroke-width="3" stroke-linecap="round" x1="240.16" y1="190.723" x2="250.143" y2="180.094"/>
		
			<line fill="none" stroke="#8CC63F" stroke-width="3" stroke-linecap="round" x1="240.176" y1="180.094" x2="250.16" y2="190.723"/>
	</g>
	<g>
		<line fill="none" stroke="#8CC63F" stroke-width="3" stroke-linecap="round" x1="240.16" y1="210.89" x2="250.143" y2="200.261"/>
		<line fill="none" stroke="#8CC63F" stroke-width="3" stroke-linecap="round" x1="240.176" y1="200.261" x2="250.16" y2="210.89"/>
	</g>
	<g>
		<line fill="none" stroke="#8CC63F" stroke-width="3" stroke-linecap="round" x1="80.165" y1="190.723" x2="90.148" y2="180.094"/>
		<line fill="none" stroke="#8CC63F" stroke-width="3" stroke-linecap="round" x1="80.181" y1="180.094" x2="90.165" y2="190.723"/>
	</g>
	<g>
		<line fill="none" stroke="#8CC63F" stroke-width="3" stroke-linecap="round" x1="80.165" y1="210.89" x2="90.148" y2="200.261"/>
		<line fill="none" stroke="#8CC63F" stroke-width="3" stroke-linecap="round" x1="80.181" y1="200.261" x2="90.165" y2="210.89"/>
	</g>
	<g>
		
			<line fill="none" stroke="#8CC63F" stroke-width="3" stroke-linecap="round" x1="119.665" y1="271.723" x2="129.648" y2="261.094"/>
		
			<line fill="none" stroke="#8CC63F" stroke-width="3" stroke-linecap="round" x1="119.681" y1="261.094" x2="129.665" y2="271.723"/>
	</g>
	<g>
		
			<line fill="none" stroke="#8CC63F" stroke-width="3" stroke-linecap="round" x1="119.665" y1="251.223" x2="129.648" y2="240.594"/>
		
			<line fill="none" stroke="#8CC63F" stroke-width="3" stroke-linecap="round" x1="119.681" y1="240.594" x2="129.665" y2="251.223"/>
	</g>
	<g>
		
			<line fill="none" stroke="#8CC63F" stroke-width="3" stroke-linecap="round" x1="119.665" y1="231.723" x2="129.648" y2="221.094"/>
		
			<line fill="none" stroke="#8CC63F" stroke-width="3" stroke-linecap="round" x1="119.681" y1="221.094" x2="129.665" y2="231.723"/>
	</g>
	<g>
		
			<line fill="none" stroke="#8CC63F" stroke-width="3" stroke-linecap="round" x1="119.665" y1="291.89" x2="129.648" y2="281.261"/>
		
			<line fill="none" stroke="#8CC63F" stroke-width="3" stroke-linecap="round" x1="119.681" y1="281.261" x2="129.665" y2="291.89"/>
	</g>
	<g>
		
			<line fill="none" stroke="#8CC63F" stroke-width="3" stroke-linecap="round" x1="159.665" y1="271.723" x2="169.648" y2="261.094"/>
		
			<line fill="none" stroke="#8CC63F" stroke-width="3" stroke-linecap="round" x1="159.681" y1="261.094" x2="169.665" y2="271.723"/>
	</g>
	<g>
		
			<line fill="none" stroke="#8CC63F" stroke-width="3" stroke-linecap="round" x1="159.665" y1="251.223" x2="169.648" y2="240.594"/>
		
			<line fill="none" stroke="#8CC63F" stroke-width="3" stroke-linecap="round" x1="159.681" y1="240.594" x2="169.665" y2="251.223"/>
	</g>
	<g>
		
			<line fill="none" stroke="#8CC63F" stroke-width="3" stroke-linecap="round" x1="159.665" y1="231.723" x2="169.648" y2="221.094"/>
		
			<line fill="none" stroke="#8CC63F" stroke-width="3" stroke-linecap="round" x1="159.681" y1="221.094" x2="169.665" y2="231.723"/>
	</g>
	<g>
		
			<line fill="none" stroke="#8CC63F" stroke-width="3" stroke-linecap="round" x1="159.665" y1="189.723" x2="169.648" y2="179.094"/>
		
			<line fill="none" stroke="#8CC63F" stroke-width="3" stroke-linecap="round" x1="159.681" y1="179.094" x2="169.665" y2="189.723"/>
	</g>
	<g>
		
			<line fill="none" stroke="#8CC63F" stroke-width="3" stroke-linecap="round" x1="159.665" y1="169.223" x2="169.648" y2="158.594"/>
		
			<line fill="none" stroke="#8CC63F" stroke-width="3" stroke-linecap="round" x1="159.681" y1="158.594" x2="169.665" y2="169.223"/>
	</g>
	<g>
		
			<line fill="none" stroke="#8CC63F" stroke-width="3" stroke-linecap="round" x1="159.665" y1="291.89" x2="169.648" y2="281.261"/>
		
			<line fill="none" stroke="#8CC63F" stroke-width="3" stroke-linecap="round" x1="159.681" y1="281.261" x2="169.665" y2="291.89"/>
	</g>
	<g>
		
			<line fill="none" stroke="#8CC63F" stroke-width="3" stroke-linecap="round" x1="280.165" y1="169.723" x2="290.148" y2="159.094"/>
		
			<line fill="none" stroke="#8CC63F" stroke-width="3" stroke-linecap="round" x1="280.182" y1="159.094" x2="290.165" y2="169.723"/>
	</g>
	<g>
		
			<line fill="none" stroke="#8CC63F" stroke-width="3" stroke-linecap="round" x1="280.165" y1="150.223" x2="290.148" y2="139.594"/>
		
			<line fill="none" stroke="#8CC63F" stroke-width="3" stroke-linecap="round" x1="280.182" y1="139.594" x2="290.165" y2="150.223"/>
	</g>
	<g>
		
			<line fill="none" stroke="#8CC63F" stroke-width="3" stroke-linecap="round" x1="280.165" y1="210.39" x2="290.148" y2="199.761"/>
		
			<line fill="none" stroke="#8CC63F" stroke-width="3" stroke-linecap="round" x1="280.182" y1="199.761" x2="290.165" y2="210.39"/>
	</g>
	<circle fill="#FFFFFF" stroke="#F14D24" stroke-width="3" stroke-linecap="round" cx="24.468" cy="205.533" r="5.662"/>
	<circle fill="#FFFFFF" stroke="#F14D24" stroke-width="3" stroke-linecap="round" cx="24.468" cy="185.533" r="5.662"/>
	<circle fill="#FFFFFF" stroke="#F14D24" stroke-width="3" stroke-linecap="round" cx="24.468" cy="164.533" r="5.662"/>
	<g>
		<line fill="none" stroke="#8CC63F" stroke-width="3" stroke-linecap="round" x1="40.16" y1="527.723" x2="50.143" y2="517.094"/>
		<line fill="none" stroke="#8CC63F" stroke-width="3" stroke-linecap="round" x1="40.176" y1="517.094" x2="50.16" y2="527.723"/>
	</g>
	<g>
		<line fill="none" stroke="#8CC63F" stroke-width="3" stroke-linecap="round" x1="40.41" y1="547.973" x2="50.393" y2="537.344"/>
		<line fill="none" stroke="#8CC63F" stroke-width="3" stroke-linecap="round" x1="40.426" y1="537.344" x2="50.41" y2="547.973"/>
	</g>
	<g>
		<line fill="none" stroke="#8CC63F" stroke-width="3" stroke-linecap="round" x1="40.16" y1="660.223" x2="50.143" y2="649.594"/>
		<line fill="none" stroke="#8CC63F" stroke-width="3" stroke-linecap="round" x1="40.176" y1="649.594" x2="50.16" y2="660.223"/>
	</g>
	<g>
		<line fill="none" stroke="#8CC63F" stroke-width="3" stroke-linecap="round" x1="40.16" y1="638.723" x2="50.143" y2="628.094"/>
		<line fill="none" stroke="#8CC63F" stroke-width="3" stroke-linecap="round" x1="40.176" y1="628.094" x2="50.16" y2="638.723"/>
	</g>
	<g>
		<line fill="none" stroke="#8CC63F" stroke-width="3" stroke-linecap="round" x1="40.41" y1="680.473" x2="50.393" y2="669.844"/>
		<line fill="none" stroke="#8CC63F" stroke-width="3" stroke-linecap="round" x1="40.426" y1="669.844" x2="50.41" y2="680.473"/>
	</g>
	<g>
		<line fill="none" stroke="#8CC63F" stroke-width="3" stroke-linecap="round" x1="80.66" y1="640.223" x2="90.643" y2="629.594"/>
		<line fill="none" stroke="#8CC63F" stroke-width="3" stroke-linecap="round" x1="80.676" y1="629.594" x2="90.66" y2="640.223"/>
	</g>
	<g>
		<line fill="none" stroke="#8CC63F" stroke-width="3" stroke-linecap="round" x1="80.66" y1="618.723" x2="90.643" y2="608.094"/>
		<line fill="none" stroke="#8CC63F" stroke-width="3" stroke-linecap="round" x1="80.676" y1="608.094" x2="90.66" y2="618.723"/>
	</g>
	<g>
		<line fill="none" stroke="#8CC63F" stroke-width="3" stroke-linecap="round" x1="80.91" y1="660.473" x2="90.893" y2="649.844"/>
		<line fill="none" stroke="#8CC63F" stroke-width="3" stroke-linecap="round" x1="80.926" y1="649.844" x2="90.91" y2="660.473"/>
	</g>
	<g>
		
			<line fill="none" stroke="#8CC63F" stroke-width="3" stroke-linecap="round" x1="121.16" y1="640.223" x2="131.143" y2="629.594"/>
		
			<line fill="none" stroke="#8CC63F" stroke-width="3" stroke-linecap="round" x1="121.176" y1="629.594" x2="131.16" y2="640.223"/>
	</g>
	<g>
		
			<line fill="none" stroke="#8CC63F" stroke-width="3" stroke-linecap="round" x1="121.16" y1="618.723" x2="131.143" y2="608.094"/>
		
			<line fill="none" stroke="#8CC63F" stroke-width="3" stroke-linecap="round" x1="121.176" y1="608.094" x2="131.16" y2="618.723"/>
	</g>
	<g>
		
			<line fill="none" stroke="#8CC63F" stroke-width="3" stroke-linecap="round" x1="121.41" y1="660.473" x2="131.393" y2="649.844"/>
		
			<line fill="none" stroke="#8CC63F" stroke-width="3" stroke-linecap="round" x1="121.426" y1="649.844" x2="131.41" y2="660.473"/>
	</g>
	<g>
		
			<line fill="none" stroke="#8CC63F" stroke-width="3" stroke-linecap="round" x1="121.41" y1="680.473" x2="131.393" y2="669.844"/>
		
			<line fill="none" stroke="#8CC63F" stroke-width="3" stroke-linecap="round" x1="121.426" y1="669.844" x2="131.41" y2="680.473"/>
	</g>
	<g>
		
			<line fill="none" stroke="#8CC63F" stroke-width="3" stroke-linecap="round" x1="161.66" y1="659.723" x2="171.643" y2="649.094"/>
		
			<line fill="none" stroke="#8CC63F" stroke-width="3" stroke-linecap="round" x1="161.676" y1="649.094" x2="171.66" y2="659.723"/>
	</g>
	<g>
		
			<line fill="none" stroke="#8CC63F" stroke-width="3" stroke-linecap="round" x1="161.66" y1="639.223" x2="171.643" y2="628.594"/>
		
			<line fill="none" stroke="#8CC63F" stroke-width="3" stroke-linecap="round" x1="161.676" y1="628.594" x2="171.66" y2="639.223"/>
	</g>
	<g>
		
			<line fill="none" stroke="#8CC63F" stroke-width="3" stroke-linecap="round" x1="161.91" y1="680.973" x2="171.893" y2="670.344"/>
		
			<line fill="none" stroke="#8CC63F" stroke-width="3" stroke-linecap="round" x1="161.926" y1="670.344" x2="171.91" y2="680.973"/>
	</g>
	<g>
		
			<line fill="none" stroke="#8CC63F" stroke-width="3" stroke-linecap="round" x1="161.91" y1="700.973" x2="171.893" y2="690.344"/>
		
			<line fill="none" stroke="#8CC63F" stroke-width="3" stroke-linecap="round" x1="161.926" y1="690.344" x2="171.91" y2="700.973"/>
	</g>
	<g>
		
			<line fill="none" stroke="#8CC63F" stroke-width="3" stroke-linecap="round" x1="201.66" y1="659.723" x2="211.643" y2="649.094"/>
		
			<line fill="none" stroke="#8CC63F" stroke-width="3" stroke-linecap="round" x1="201.676" y1="649.094" x2="211.66" y2="659.723"/>
	</g>
	<g>
		
			<line fill="none" stroke="#8CC63F" stroke-width="3" stroke-linecap="round" x1="201.91" y1="680.973" x2="211.893" y2="670.344"/>
		
			<line fill="none" stroke="#8CC63F" stroke-width="3" stroke-linecap="round" x1="201.926" y1="670.344" x2="211.91" y2="680.973"/>
	</g>
	<g>
		
			<line fill="none" stroke="#8CC63F" stroke-width="3" stroke-linecap="round" x1="201.91" y1="700.973" x2="211.893" y2="690.344"/>
		
			<line fill="none" stroke="#8CC63F" stroke-width="3" stroke-linecap="round" x1="201.926" y1="690.344" x2="211.91" y2="700.973"/>
	</g>
	<g>
		
			<line fill="none" stroke="#8CC63F" stroke-width="3" stroke-linecap="round" x1="241.91" y1="680.973" x2="251.893" y2="670.344"/>
		
			<line fill="none" stroke="#8CC63F" stroke-width="3" stroke-linecap="round" x1="241.926" y1="670.344" x2="251.91" y2="680.973"/>
	</g>
	<g>
		
			<line fill="none" stroke="#8CC63F" stroke-width="3" stroke-linecap="round" x1="241.91" y1="700.973" x2="251.893" y2="690.344"/>
		
			<line fill="none" stroke="#8CC63F" stroke-width="3" stroke-linecap="round" x1="241.926" y1="690.344" x2="251.91" y2="700.973"/>
	</g>
	<g>
		<line fill="none" stroke="#8CC63F" stroke-width="3" stroke-linecap="round" x1="40.41" y1="700.973" x2="50.393" y2="690.344"/>
		<line fill="none" stroke="#8CC63F" stroke-width="3" stroke-linecap="round" x1="40.426" y1="690.344" x2="50.41" y2="700.973"/>
	</g>
	<g>
		<line fill="none" stroke="#8CC63F" stroke-width="3" stroke-linecap="round" x1="80.827" y1="527.89" x2="90.81" y2="517.261"/>
		<line fill="none" stroke="#8CC63F" stroke-width="3" stroke-linecap="round" x1="80.843" y1="517.261" x2="90.827" y2="527.89"/>
	</g>
	<g>
		<line fill="none" stroke="#8CC63F" stroke-width="3" stroke-linecap="round" x1="80.827" y1="506.89" x2="90.81" y2="496.261"/>
		<line fill="none" stroke="#8CC63F" stroke-width="3" stroke-linecap="round" x1="80.843" y1="496.261" x2="90.827" y2="506.89"/>
	</g>
	<g>
		<line fill="none" stroke="#8CC63F" stroke-width="3" stroke-linecap="round" x1="80.827" y1="486.39" x2="90.81" y2="475.761"/>
		<line fill="none" stroke="#8CC63F" stroke-width="3" stroke-linecap="round" x1="80.843" y1="475.761" x2="90.827" y2="486.39"/>
	</g>
	<g>
		<line fill="none" stroke="#8CC63F" stroke-width="3" stroke-linecap="round" x1="80.827" y1="466.557" x2="90.81" y2="455.928"/>
		<line fill="none" stroke="#8CC63F" stroke-width="3" stroke-linecap="round" x1="80.843" y1="455.928" x2="90.827" y2="466.557"/>
	</g>
	<g>
		<line fill="none" stroke="#8CC63F" stroke-width="3" stroke-linecap="round" x1="81.077" y1="548.14" x2="91.06" y2="537.511"/>
		<line fill="none" stroke="#8CC63F" stroke-width="3" stroke-linecap="round" x1="81.093" y1="537.511" x2="91.077" y2="548.14"/>
	</g>
	<g>
		<line fill="none" stroke="#8CC63F" stroke-width="3" stroke-linecap="round" x1="121.327" y1="527.89" x2="131.31" y2="517.261"/>
		
			<line fill="none" stroke="#8CC63F" stroke-width="3" stroke-linecap="round" x1="121.343" y1="517.261" x2="131.327" y2="527.89"/>
	</g>
	<g>
		<line fill="none" stroke="#8CC63F" stroke-width="3" stroke-linecap="round" x1="121.327" y1="506.89" x2="131.31" y2="496.261"/>
		
			<line fill="none" stroke="#8CC63F" stroke-width="3" stroke-linecap="round" x1="121.343" y1="496.261" x2="131.327" y2="506.89"/>
	</g>
	<g>
		<line fill="none" stroke="#8CC63F" stroke-width="3" stroke-linecap="round" x1="121.327" y1="486.39" x2="131.31" y2="475.761"/>
		
			<line fill="none" stroke="#8CC63F" stroke-width="3" stroke-linecap="round" x1="121.343" y1="475.761" x2="131.327" y2="486.39"/>
	</g>
	<g>
		
			<line fill="none" stroke="#8CC63F" stroke-width="3" stroke-linecap="round" x1="121.327" y1="466.557" x2="131.31" y2="455.928"/>
		
			<line fill="none" stroke="#8CC63F" stroke-width="3" stroke-linecap="round" x1="121.343" y1="455.928" x2="131.327" y2="466.557"/>
	</g>
	<g>
		<line fill="none" stroke="#8CC63F" stroke-width="3" stroke-linecap="round" x1="160.827" y1="506.89" x2="170.81" y2="496.261"/>
		
			<line fill="none" stroke="#8CC63F" stroke-width="3" stroke-linecap="round" x1="160.843" y1="496.261" x2="170.827" y2="506.89"/>
	</g>
	<g>
		<line fill="none" stroke="#8CC63F" stroke-width="3" stroke-linecap="round" x1="160.827" y1="486.39" x2="170.81" y2="475.761"/>
		
			<line fill="none" stroke="#8CC63F" stroke-width="3" stroke-linecap="round" x1="160.843" y1="475.761" x2="170.827" y2="486.39"/>
	</g>
	<g>
		
			<line fill="none" stroke="#8CC63F" stroke-width="3" stroke-linecap="round" x1="160.827" y1="466.557" x2="170.81" y2="455.928"/>
		
			<line fill="none" stroke="#8CC63F" stroke-width="3" stroke-linecap="round" x1="160.843" y1="455.928" x2="170.827" y2="466.557"/>
	</g>
	<g>
		
			<line fill="none" stroke="#8CC63F" stroke-width="3" stroke-linecap="round" x1="201.326" y1="548.39" x2="211.311" y2="537.761"/>
		
			<line fill="none" stroke="#8CC63F" stroke-width="3" stroke-linecap="round" x1="201.343" y1="537.761" x2="211.326" y2="548.39"/>
	</g>
	<g>
		
			<line fill="none" stroke="#8CC63F" stroke-width="3" stroke-linecap="round" x1="201.326" y1="527.89" x2="211.311" y2="517.261"/>
		
			<line fill="none" stroke="#8CC63F" stroke-width="3" stroke-linecap="round" x1="201.343" y1="517.261" x2="211.326" y2="527.89"/>
	</g>
	<g>
		
			<line fill="none" stroke="#8CC63F" stroke-width="3" stroke-linecap="round" x1="241.326" y1="548.39" x2="251.311" y2="537.761"/>
		
			<line fill="none" stroke="#8CC63F" stroke-width="3" stroke-linecap="round" x1="241.343" y1="537.761" x2="251.326" y2="548.39"/>
	</g>
	<g>
		
			<line fill="none" stroke="#8CC63F" stroke-width="3" stroke-linecap="round" x1="241.326" y1="527.89" x2="251.311" y2="517.261"/>
		
			<line fill="none" stroke="#8CC63F" stroke-width="3" stroke-linecap="round" x1="241.343" y1="517.261" x2="251.326" y2="527.89"/>
	</g>
	<g>
		
			<line fill="none" stroke="#8CC63F" stroke-width="3" stroke-linecap="round" x1="201.326" y1="508.057" x2="211.311" y2="497.428"/>
		
			<line fill="none" stroke="#8CC63F" stroke-width="3" stroke-linecap="round" x1="201.343" y1="497.428" x2="211.326" y2="508.057"/>
	</g>
	<circle fill="#FFFFFF" stroke="#F14D24" stroke-width="3" stroke-linecap="round" cx="25.718" cy="562.783" r="5.662"/>
	<circle fill="#FFFFFF" stroke="#F14D24" stroke-width="3" stroke-linecap="round" cx="25.468" cy="542.533" r="5.662"/>
	<circle fill="#FFFFFF" stroke="#F14D24" stroke-width="3" stroke-linecap="round" cx="65.5" cy="542.533" r="5.662"/>
	<circle fill="#FFFFFF" stroke="#F14D24" stroke-width="3" stroke-linecap="round" cx="65.5" cy="562.533" r="5.662"/>
	<circle fill="#FFFFFF" stroke="#F14D24" stroke-width="3" stroke-linecap="round" cx="25.468" cy="521.533" r="5.662"/>
	<circle fill="#FFFFFF" stroke="#F14D24" stroke-width="3" stroke-linecap="round" cx="25.468" cy="695.533" r="5.662"/>
	<circle fill="#FFFFFF" stroke="#F14D24" stroke-width="3" stroke-linecap="round" cx="25.468" cy="675" r="5.662"/>
	<circle fill="#FFFFFF" stroke="#F14D24" stroke-width="3" stroke-linecap="round" cx="25.468" cy="654.5" r="5.662"/>
	<circle fill="#FFFFFF" stroke="#F14D24" stroke-width="3" stroke-linecap="round" cx="105.968" cy="695.033" r="5.662"/>
	<circle fill="#FFFFFF" stroke="#F14D24" stroke-width="3" stroke-linecap="round" cx="105.968" cy="715.033" r="5.662"/>
	<circle fill="#FFFFFF" stroke="#F14D24" stroke-width="3" stroke-linecap="round" cx="105.968" cy="675.033" r="5.662"/>
	<circle fill="#FFFFFF" stroke="#F14D24" stroke-width="3" stroke-linecap="round" cx="105.968" cy="654.5" r="5.662"/>
	<circle fill="#FFFFFF" stroke="#F14D24" stroke-width="3" stroke-linecap="round" cx="105.968" cy="634" r="5.662"/>
	<circle fill="#FFFFFF" stroke="#F14D24" stroke-width="3" stroke-linecap="round" cx="146" cy="695.033" r="5.662"/>
	<circle fill="#FFFFFF" stroke="#F14D24" stroke-width="3" stroke-linecap="round" cx="146" cy="715.033" r="5.662"/>
	<circle fill="#FFFFFF" stroke="#F14D24" stroke-width="3" stroke-linecap="round" cx="146" cy="675.033" r="5.662"/>
	<circle fill="#FFFFFF" stroke="#F14D24" stroke-width="3" stroke-linecap="round" cx="146" cy="654.5" r="5.662"/>
	<circle fill="#FFFFFF" stroke="#F14D24" stroke-width="3" stroke-linecap="round" cx="146" cy="634" r="5.662"/>
	<circle fill="#FFFFFF" stroke="#F14D24" stroke-width="3" stroke-linecap="round" cx="186.5" cy="695.033" r="5.662"/>
	<circle fill="#FFFFFF" stroke="#F14D24" stroke-width="3" stroke-linecap="round" cx="186.5" cy="715.033" r="5.662"/>
	<circle fill="#FFFFFF" stroke="#F14D24" stroke-width="3" stroke-linecap="round" cx="186.5" cy="675.033" r="5.662"/>
	<circle fill="#FFFFFF" stroke="#F14D24" stroke-width="3" stroke-linecap="round" cx="226.5" cy="695.033" r="5.662"/>
	<circle fill="#FFFFFF" stroke="#F14D24" stroke-width="3" stroke-linecap="round" cx="226.5" cy="715.033" r="5.662"/>
	<circle fill="#FFFFFF" stroke="#F14D24" stroke-width="3" stroke-linecap="round" cx="226.5" cy="675.033" r="5.662"/>
	<circle fill="#FFFFFF" stroke="#F14D24" stroke-width="3" stroke-linecap="round" cx="186.5" cy="654.5" r="5.662"/>
	<circle fill="#FFFFFF" stroke="#F14D24" stroke-width="3" stroke-linecap="round" cx="65.968" cy="654.5" r="5.662"/>
	<circle fill="#FFFFFF" stroke="#F14D24" stroke-width="3" stroke-linecap="round" cx="65.968" cy="634" r="5.662"/>
	<circle fill="#FFFFFF" stroke="#F14D24" stroke-width="3" stroke-linecap="round" cx="106.167" cy="522.168" r="5.662"/>
	<circle fill="#FFFFFF" stroke="#F14D24" stroke-width="3" stroke-linecap="round" cx="105.917" cy="501.751" r="5.662"/>
	<circle fill="#FFFFFF" stroke="#F14D24" stroke-width="3" stroke-linecap="round" cx="105.917" cy="481.417" r="5.662"/>
	<circle fill="#FFFFFF" stroke="#F14D24" stroke-width="3" stroke-linecap="round" cx="186.167" cy="522.168" r="5.662"/>
	<circle fill="#FFFFFF" stroke="#F14D24" stroke-width="3" stroke-linecap="round" cx="185.916" cy="501.751" r="5.662"/>
	<circle fill="#FFFFFF" stroke="#F14D24" stroke-width="3" stroke-linecap="round" cx="226.167" cy="562.835" r="5.662"/>
	<circle fill="#FFFFFF" stroke="#F14D24" stroke-width="3" stroke-linecap="round" cx="225.916" cy="542.418" r="5.662"/>
	<circle fill="#FFFFFF" stroke="#F14D24" stroke-width="3" stroke-linecap="round" cx="185.916" cy="481.417" r="5.662"/>
	<circle fill="#FFFFFF" stroke="#F14D24" stroke-width="3" stroke-linecap="round" cx="146.667" cy="542.668" r="5.662"/>
	<circle fill="#FFFFFF" stroke="#F14D24" stroke-width="3" stroke-linecap="round" cx="146.417" cy="522.251" r="5.662"/>
	<circle fill="#FFFFFF" stroke="#F14D24" stroke-width="3" stroke-linecap="round" cx="146.417" cy="501.917" r="5.662"/>
	<circle fill="#FFFFFF" stroke="#F14D24" stroke-width="3" stroke-linecap="round" cx="64.468" cy="226.199" r="5.662"/>
	<circle fill="#FFFFFF" stroke="#F14D24" stroke-width="3" stroke-linecap="round" cx="64.468" cy="205.533" r="5.662"/>
	<circle fill="#FFFFFF" stroke="#F14D24" stroke-width="3" stroke-linecap="round" cx="64.468" cy="185.533" r="5.662"/>
	<circle fill="#FFFFFF" stroke="#F14D24" stroke-width="3" stroke-linecap="round" cx="184.969" cy="226.199" r="5.662"/>
	<circle fill="#FFFFFF" stroke="#F14D24" stroke-width="3" stroke-linecap="round" cx="184.969" cy="205.533" r="5.662"/>
	<circle fill="#FFFFFF" stroke="#F14D24" stroke-width="3" stroke-linecap="round" cx="184.969" cy="185.533" r="5.662"/>
	<circle fill="#FFFFFF" stroke="#F14D24" stroke-width="3" stroke-linecap="round" cx="224.969" cy="205.533" r="5.662"/>
	<circle fill="#FFFFFF" stroke="#F14D24" stroke-width="3" stroke-linecap="round" cx="224.969" cy="225.533" r="5.662"/>
	<circle fill="#FFFFFF" stroke="#F14D24" stroke-width="3" stroke-linecap="round" cx="265" cy="205.533" r="5.662"/>
	<circle fill="#FFFFFF" stroke="#F14D24" stroke-width="3" stroke-linecap="round" cx="265" cy="225.533" r="5.662"/>
	<circle fill="#FFFFFF" stroke="#F14D24" stroke-width="3" stroke-linecap="round" cx="305.5" cy="185.033" r="5.662"/>
	<circle fill="#FFFFFF" stroke="#F14D24" stroke-width="3" stroke-linecap="round" cx="305.5" cy="164.533" r="5.662"/>
	<circle fill="#FFFFFF" stroke="#F14D24" stroke-width="3" stroke-linecap="round" cx="305.5" cy="205.033" r="5.662"/>
	<circle fill="#FFFFFF" stroke="#F14D24" stroke-width="3" stroke-linecap="round" cx="305.5" cy="225.033" r="5.662"/>
	<circle fill="#FFFFFF" stroke="#F14D24" stroke-width="3" stroke-linecap="round" cx="224.969" cy="185.533" r="5.662"/>
	<circle fill="#FFFFFF" stroke="#F14D24" stroke-width="3" stroke-linecap="round" cx="104.801" cy="246.533" r="5.662"/>
	<circle fill="#FFFFFF" stroke="#F14D24" stroke-width="3" stroke-linecap="round" cx="104.801" cy="286.666" r="5.662"/>
	<circle fill="#FFFFFF" stroke="#F14D24" stroke-width="3" stroke-linecap="round" cx="104.801" cy="307.333" r="5.662"/>
	<circle fill="#FFFFFF" stroke="#F14D24" stroke-width="3" stroke-linecap="round" cx="104.801" cy="225.866" r="5.662"/>
	<circle fill="#FFFFFF" stroke="#F14D24" stroke-width="3" stroke-linecap="round" cx="144.801" cy="267.033" r="5.662"/>
	<circle fill="#FFFFFF" stroke="#F14D24" stroke-width="3" stroke-linecap="round" cx="144.801" cy="287.033" r="5.662"/>
	<circle fill="#FFFFFF" stroke="#F14D24" stroke-width="3" stroke-linecap="round" cx="144.801" cy="307" r="5.662"/>
	<circle fill="#FFFFFF" stroke="#F14D24" stroke-width="3" stroke-linecap="round" cx="144.801" cy="246.366" r="5.662"/>
	<circle fill="#FFFFFF" stroke="#F14D24" stroke-width="3" stroke-linecap="round" cx="104.801" cy="205.866" r="5.662"/>
	<circle fill="#FFFFFF" stroke="#F14D24" stroke-width="3" stroke-linecap="round" cx="24.468" cy="144.533" r="5.662"/>
	<g>
		<text transform="matrix(1 0 0 1 18.9932 231.8071)" fill="#333333" font-family="'Courier-Bold'" font-size="18.611">7</text>
	</g>
	<g>
		<text transform="matrix(1 0 0 1 99.3267 272.4736)" fill="#333333" font-family="'Courier-Bold'" font-size="18.611">8</text>
	</g>
	<g>
		<text transform="matrix(1 0 0 1 158.8267 211.9736)" fill="#333333" font-family="'Courier-Bold'" font-size="18.611">9</text>
	</g>
	<g>
		<text transform="matrix(1 0 0 1 199.3262 149.9736)" fill="#333333" font-family="'Courier-Bold'" font-size="18.611">A</text>
	</g>
	<g>
		<text transform="matrix(1 0 0 1 279.8262 189.9736)" fill="#333333" font-family="'Courier-Bold'" font-size="18.611">B</text>
	</g>
</g>
<g id="Layer_3">
</g>
<g id="Layer_5">
	<text transform="matrix(1 0 0 1 112.9697 392.5938)" fill="#333333" font-family="'Helvetica-Bold'" font-size="12">Key date markers</text>
	<text transform="matrix(1 0 0 1 270.4697 454.7617)" fill="#333333" font-family="'Helvetica-Bold'" font-size="12">Resistance</text>
	<text transform="matrix(1 0 0 1 249.1387 87.6216)" fill="#333333" font-family="'Helvetica-Bold'" font-size="12">Value scale</text>
	<text transform="matrix(1 0 0 1 22.1387 27.2876)"><tspan x="0" y="0" fill="#333333" font-family="'Helvetica-Bold'" font-size="12">O columns =</tspan><tspan x="0" y="14.4" fill="#333333" font-family="'Helvetica-Bold'" font-size="12">falling prices</tspan></text>
	<text transform="matrix(1 0 0 1 82.8057 80.9546)"><tspan x="0" y="0" fill="#333333" font-family="'Helvetica-Bold'" font-size="12">X columns =</tspan><tspan x="0" y="14.4" fill="#333333" font-family="'Helvetica-Bold'" font-size="12">rising prices</tspan></text>
	<text transform="matrix(1 0 0 1 156.3013 27.2876)"><tspan x="0" y="0" fill="#333333" font-family="'Helvetica-Bold'" font-size="12">Month marker for</tspan><tspan x="-28.652" y="14.4" fill="#333333" font-family="'Helvetica-Bold'" font-size="12">beginning of trading period</tspan></text>
	<polyline fill="none" stroke="#333333" stroke-width="1.5" points="304,357.345 304,366.345 16.109,366.345 16.109,357.345 	"/>
	<line fill="none" stroke="#333333" stroke-width="1.5" x1="163.417" y1="366.345" x2="163.417" y2="376.62"/>
	<g>
		<g>
			<polyline fill="none" stroke="#333333" stroke-width="1.5" points="318,84.177 330.5,84.177 330.5,109.858 			"/>
			<g>
				<polygon fill="#333333" points="324.365,104.887 325.464,103.864 330.498,109.282 335.535,103.864 336.633,104.887 
					330.498,111.484 				"/>
			</g>
		</g>
	</g>
	<g>
		<g>
			<line fill="none" stroke="#000000" stroke-width="1.5" x1="24.333" y1="128.041" x2="24.333" y2="48.334"/>
			<g>
				<polygon points="30.468,123.07 29.369,122.047 24.334,127.465 19.298,122.047 18.2,123.07 24.334,129.667 				"/>
			</g>
		</g>
	</g>
	<g>
		<g>
			<line fill="none" stroke="#000000" stroke-width="1.5" x1="85" y1="172.041" x2="85" y2="101.667"/>
			<g>
				<polygon points="91.135,167.07 90.036,166.047 85.001,171.465 79.965,166.047 78.867,167.07 85.001,173.667 				"/>
			</g>
		</g>
	</g>
	<g>
		<g>
			<line fill="none" stroke="#000000" stroke-width="1.5" x1="205" y1="129.707" x2="205" y2="49"/>
			<g>
				<polygon points="211.135,124.737 210.036,123.714 205.002,129.132 199.965,123.714 198.867,124.737 205.002,131.334 				"/>
			</g>
		</g>
	</g>
	<line fill="none" stroke="#1A1A1A" stroke-width="2" stroke-linecap="round" x1="76.557" y1="450.5" x2="264.61" y2="450.5"/>
	<text transform="matrix(1 0 0 1 270.4697 729.7617)" fill="#333333" font-family="'Helvetica-Bold'" font-size="12">Support</text>
	<line fill="none" stroke="#1A1A1A" stroke-width="2" stroke-linecap="round" x1="96.203" y1="725.5" x2="264.714" y2="725.5"/>
</g>
</svg>
