<?xml version="1.0" encoding="utf-8"?>
<!-- Generator: Adobe Illustrator 16.0.0, SVG Export Plug-In . SVG Version: 6.00 Build 0)  -->
<!DOCTYPE svg PUBLIC "-//W3C//DTD SVG 1.1//EN" "http://www.w3.org/Graphics/SVG/1.1/DTD/svg11.dtd">
<svg version="1.1" xmlns="http://www.w3.org/2000/svg" xmlns:xlink="http://www.w3.org/1999/xlink" x="0px" y="0px" width="350px"
	 height="377px" viewBox="0 0 350 377" enable-background="new 0 0 350 377" xml:space="preserve">
<g id="Layer_2">
	<path fill="#0085E5" d="M12.5,137.888c15.567,4.793,35.996,3.571,47.126-10.238c7.767-9.636,21.63-35.078,33.885-17.217
		c7.957,11.596,16.989,34.703,28.489,35.26c20.637,1.001,19.757-33.797,38.92-34.813c14.015-0.743,25.315,8.844,38.387,7.454
		c18.602-1.977,34.389-13.17,49.143-25.034C278.5,58.163,277.5,115.587,329.5,88.826c0,0,6-2.974,8-4.089v67.646l-85,100.354
		l-44,1.115l-57-66.903L98,227.091l-53-8.362l-32.5-6.133V137.888z"/>
	<path fill="#A1DBFF" d="M12.5,235.642v-29.736c0,0,29.333-14.123,45.333-5.575c17.747,9.483,29.145,13.043,46.113,0.616
		c9.923-7.268,19.162-14.859,27.368-24.417c5.857-6.822,12.334-18.448,20.005-22.932c14.354-8.39,27.267,27.612,33.22,37.097
		c8.978,14.305,18.799,27.313,29.833,39.649c12.079,13.507,22.314,5.998,30.795-8.456c10.673-16.184,20.676-32.97,31-49.434
		c0,0,25.999-54.266,61.333-47.947v163.168c0,0-15-2.881-18.75-4.554c-6.277-2.8-14.646-5.839-21.529-3.687
		c-7.347,2.298-13.535,9.707-20.877,12.781c-17.021,7.127-26.164-7.81-39.337-16.348c-24.297-15.748-42.338-22.054-69.757-12.261
		c-20.848,1.579-30.424-40.998-48.137-34.54c-11.843,4.318-24.222,50.394-40.303,40.259c-13.432-8.465-24.181-40.573-45.81-33.873
		c0,0-18.25,1.394-20.5,1.951"/>
	<g>
		<g>
			<line fill="none" stroke="#1A1A1A" stroke-width="2" stroke-linecap="round" x1="13.83" y1="342" x2="335.096" y2="342"/>
			<g>
				<path fill="#1A1A1A" d="M321.427,351.6c-0.297-0.465-0.159-1.084,0.307-1.381L334.639,342l-12.905-8.219
					c-0.466-0.297-0.604-0.916-0.307-1.381s0.919-0.6,1.381-0.307l14.229,9.062c0.288,0.184,0.463,0.502,0.463,0.844
					s-0.175,0.66-0.463,0.844l-14.229,9.062c-0.166,0.105-0.353,0.156-0.536,0.156C321.941,352.062,321.618,351.898,321.427,351.6z"
					/>
			</g>
		</g>
	</g>
	<text transform="matrix(1 0 0 1 156.6309 330)"><tspan x="0" y="0" font-family="'MyriadPro-Regular'" font-size="16" letter-spacing="1">T</tspan><tspan x="9.152" y="0" font-family="'MyriadPro-Regular'" font-size="16">ime</tspan></text>
	<text transform="matrix(1 0 0 1 80.8784 38.667)" fill="#1A1A1A" font-family="'MyriadPro-Regular'" font-size="16">Category A</text>
	<text transform="matrix(1 0 0 1 212.4385 38.667)" fill="#1A1A1A" font-family="'MyriadPro-Regular'" font-size="16">Category B</text>
	<path fill="#0085E5" d="M72.941,40.667c0,1.657-1.343,3-3,3h-14c-1.657,0-3-1.343-3-3v-14c0-1.657,1.343-3,3-3h14
		c1.657,0,3,1.343,3,3V40.667z"/>
	<path fill="#A1DBFF" d="M203.67,40.667c0,1.657-1.344,3-3,3h-14c-1.656,0-3-1.343-3-3v-14c0-1.657,1.344-3,3-3h14
		c1.656,0,3,1.343,3,3V40.667z"/>
</g>
<g id="Layer_3">
	<text transform="matrix(1 0 0 1 207.2461 173.6968)" fill="#1A1A1A" font-family="'MyriadPro-Regular'" font-size="16">Value</text>
	<g>
		<g>
			<line fill="none" stroke="#1A1A1A" stroke-width="2" x1="226.67" y1="156" x2="226.67" y2="113.735"/>
			<g>
				<polygon fill="#1A1A1A" points="233.214,119.037 232.042,120.128 226.672,114.349 221.3,120.128 220.128,119.037 226.672,112 
									"/>
			</g>
		</g>
	</g>
	<g>
		<g>
			<line fill="none" stroke="#1A1A1A" stroke-width="2" x1="226.672" y1="182" x2="226.672" y2="231.233"/>
			<g>
				<polygon fill="#1A1A1A" points="220.128,225.932 221.3,224.841 226.67,230.619 232.042,224.841 233.214,225.932 226.67,232.969 
									"/>
			</g>
		</g>
	</g>
</g>
</svg>
