<?xml version="1.0" encoding="utf-8"?>
<!-- Generator: Adobe Illustrator 21.0.0, SVG Export Plug-In . SVG Version: 6.00 Build 0)  -->
<svg version="1.1" xmlns="http://www.w3.org/2000/svg" xmlns:xlink="http://www.w3.org/1999/xlink" x="0px" y="0px"
	 viewBox="0 0 350 344" style="enable-background:new 0 0 350 344;" xml:space="preserve">
<style type="text/css">
	.st0{opacity:0.8;fill:#8CC63F;}
	.st1{opacity:0.8;fill:#F15A24;}
	.st2{fill:#72AC3F;}
	.st3{fill:#333333;}
	.st4{fill:#F15A24;}
	.st5{fill:none;stroke:#333333;stroke-width:2;}
	.st6{fill:#FFFFFF;}
	.st7{opacity:0.9;}
</style>
<g id="Layer_2">
	<circle class="st0" cx="113.4" cy="162.8" r="99.2"/>
	<circle class="st1" cx="239.6" cy="162.8" r="99.2"/>
</g>
<g id="Layer_1">
	<g>
		<path class="st2" d="M87.2,28.9c0.8,0.4,2.1,0.8,3.4,0.8c1.4,0,2.1-0.6,2.1-1.5c0-0.8-0.6-1.3-2.3-1.9c-2.2-0.8-3.7-2-3.7-4
			c0-2.3,1.9-4.1,5.1-4.1c1.5,0,2.6,0.3,3.4,0.7l-0.7,2.5c-0.5-0.3-1.5-0.6-2.8-0.6s-2,0.6-2,1.3c0,0.9,0.8,1.2,2.5,1.9
			c2.4,0.9,3.5,2.1,3.5,4c0,2.3-1.7,4.2-5.4,4.2c-1.5,0-3.1-0.4-3.8-0.8L87.2,28.9z"/>
		<path class="st2" d="M100.3,28.1c0.1,1.3,1.3,1.9,2.8,1.9c1,0,1.9-0.1,2.7-0.4l0.4,2.1c-1,0.4-2.2,0.6-3.5,0.6
			c-3.3,0-5.2-1.9-5.2-5c0-2.5,1.5-5.2,4.9-5.2c3.2,0,4.4,2.5,4.4,4.9c0,0.5-0.1,1-0.1,1.2H100.3z M103.8,26c0-0.7-0.3-2-1.7-2
			c-1.3,0-1.8,1.2-1.9,2H103.8z"/>
		<path class="st2" d="M111.9,19.4v2.8h2.2v2.2h-2.2V28c0,1.2,0.3,1.7,1.2,1.7c0.4,0,0.7,0,0.9-0.1l0,2.3c-0.4,0.2-1.1,0.3-2,0.3
			c-1,0-1.8-0.3-2.3-0.8c-0.6-0.6-0.8-1.5-0.8-2.9v-4h-1.3v-2.2h1.3v-2.1L111.9,19.4z"/>
		<path class="st2" d="M123.1,28.5l-1,3.5H119l4.1-13.5h4l4.2,13.5H128l-1-3.5H123.1z M126.5,26.3l-0.8-2.9
			c-0.2-0.8-0.5-1.8-0.7-2.6h0c-0.2,0.8-0.4,1.8-0.6,2.6l-0.8,2.9H126.5z"/>
		<path class="st2" d="M132.8,23.9c0-1.1,0.7-1.8,1.8-1.8c1.1,0,1.8,0.7,1.8,1.8c0,1-0.7,1.8-1.8,1.8
			C133.5,25.8,132.8,25,132.8,23.9z M132.8,30.4c0-1.1,0.7-1.8,1.8-1.8c1.1,0,1.8,0.8,1.8,1.8c0,1-0.7,1.8-1.8,1.8
			C133.5,32.2,132.8,31.4,132.8,30.4z"/>
		<path class="st3" d="M75.3,40.4h1.4V50h4.6v1.2h-6V40.4z"/>
		<path class="st3" d="M84.4,41.3c0,0.5-0.3,0.9-0.9,0.9c-0.5,0-0.8-0.4-0.8-0.9c0-0.5,0.4-0.9,0.9-0.9C84,40.4,84.4,40.8,84.4,41.3
			z M82.8,51.2v-7.7h1.4v7.7H82.8z"/>
		<path class="st3" d="M88,47L88,47c0.2-0.3,0.5-0.6,0.7-0.9l2.3-2.7h1.7l-3,3.2l3.4,4.6h-1.7l-2.7-3.7L88,48.3v2.9h-1.4V39.8H88V47
			z"/>
		<path class="st3" d="M94.8,47.6c0,1.9,1.2,2.7,2.7,2.7c1,0,1.6-0.2,2.1-0.4l0.2,1c-0.5,0.2-1.3,0.5-2.6,0.5
			c-2.4,0-3.8-1.6-3.8-3.9s1.4-4.2,3.6-4.2c2.5,0,3.2,2.2,3.2,3.6c0,0.3,0,0.5,0,0.7H94.8z M99,46.6c0-0.9-0.4-2.3-2-2.3
			c-1.4,0-2,1.3-2.2,2.3H99z"/>
		<path class="st3" d="M101.9,49.8c0.4,0.3,1.2,0.6,1.9,0.6c1,0,1.5-0.5,1.5-1.2c0-0.7-0.4-1-1.4-1.4c-1.4-0.5-2-1.3-2-2.2
			c0-1.2,1-2.3,2.7-2.3c0.8,0,1.5,0.2,1.9,0.5l-0.4,1c-0.3-0.2-0.9-0.4-1.6-0.4c-0.8,0-1.3,0.5-1.3,1.1c0,0.6,0.5,0.9,1.5,1.3
			c1.3,0.5,2,1.2,2,2.3c0,1.4-1.1,2.3-2.9,2.3c-0.8,0-1.6-0.2-2.2-0.5L101.9,49.8z"/>
		<path class="st3" d="M113.2,41.6H110v-1.2h8v1.2h-3.3v9.6h-1.4V41.6z"/>
		<path class="st3" d="M118.8,47.6c0,1.9,1.2,2.7,2.7,2.7c1,0,1.6-0.2,2.1-0.4l0.2,1c-0.5,0.2-1.3,0.5-2.6,0.5
			c-2.4,0-3.8-1.6-3.8-3.9s1.4-4.2,3.6-4.2c2.5,0,3.2,2.2,3.2,3.6c0,0.3,0,0.5,0,0.7H118.8z M122.9,46.6c0-0.9-0.4-2.3-2-2.3
			c-1.4,0-2,1.3-2.2,2.3H122.9z"/>
		<path class="st3" d="M126,45.5c0-0.8,0-1.5-0.1-2.1h1.2l0.1,1.3h0c0.4-0.7,1.3-1.5,2.6-1.5c1.1,0,2.7,0.6,2.7,3.3v4.6h-1.4v-4.5
			c0-1.2-0.5-2.3-1.8-2.3c-0.9,0-1.6,0.7-1.9,1.4c-0.1,0.2-0.1,0.4-0.1,0.7v4.7H126V45.5z"/>
		<path class="st3" d="M134.9,45.5c0-0.8,0-1.5-0.1-2.1h1.2l0.1,1.3h0c0.4-0.7,1.3-1.5,2.6-1.5c1.1,0,2.7,0.6,2.7,3.3v4.6H140v-4.5
			c0-1.2-0.5-2.3-1.8-2.3c-0.9,0-1.6,0.7-1.9,1.4c-0.1,0.2-0.1,0.4-0.1,0.7v4.7h-1.4V45.5z"/>
		<path class="st3" d="M145.3,41.3c0,0.5-0.3,0.9-0.9,0.9c-0.5,0-0.8-0.4-0.8-0.9c0-0.5,0.4-0.9,0.9-0.9
			C145,40.4,145.3,40.8,145.3,41.3z M143.7,51.2v-7.7h1.4v7.7H143.7z"/>
		<path class="st3" d="M147.3,49.8c0.4,0.3,1.2,0.6,1.9,0.6c1,0,1.5-0.5,1.5-1.2c0-0.7-0.4-1-1.4-1.4c-1.4-0.5-2-1.3-2-2.2
			c0-1.2,1-2.3,2.7-2.3c0.8,0,1.5,0.2,1.9,0.5l-0.4,1c-0.3-0.2-0.9-0.4-1.6-0.4c-0.8,0-1.3,0.5-1.3,1.1c0,0.6,0.5,0.9,1.5,1.3
			c1.3,0.5,2,1.2,2,2.3c0,1.4-1.1,2.3-2.9,2.3c-0.8,0-1.6-0.2-2.2-0.5L147.3,49.8z"/>
	</g>
	<g>
		<path class="st4" d="M214,28.9c0.8,0.4,2.1,0.8,3.4,0.8c1.4,0,2.1-0.6,2.1-1.5c0-0.8-0.6-1.3-2.3-1.9c-2.2-0.8-3.7-2-3.7-4
			c0-2.3,1.9-4.1,5.1-4.1c1.5,0,2.6,0.3,3.4,0.7l-0.7,2.5c-0.5-0.3-1.5-0.6-2.8-0.6s-2,0.6-2,1.3c0,0.9,0.8,1.2,2.5,1.9
			c2.4,0.9,3.5,2.1,3.5,4c0,2.3-1.7,4.2-5.4,4.2c-1.5,0-3.1-0.4-3.8-0.8L214,28.9z"/>
		<path class="st4" d="M227,28.1c0.1,1.3,1.3,1.9,2.8,1.9c1,0,1.9-0.1,2.7-0.4l0.4,2.1c-1,0.4-2.2,0.6-3.5,0.6c-3.3,0-5.2-1.9-5.2-5
			c0-2.5,1.5-5.2,4.9-5.2c3.2,0,4.4,2.5,4.4,4.9c0,0.5-0.1,1-0.1,1.2H227z M230.6,26c0-0.7-0.3-2-1.7-2c-1.3,0-1.8,1.2-1.9,2H230.6z
			"/>
		<path class="st4" d="M238.7,19.4v2.8h2.2v2.2h-2.2V28c0,1.2,0.3,1.7,1.2,1.7c0.4,0,0.7,0,0.9-0.1l0,2.3c-0.4,0.2-1.1,0.3-2,0.3
			c-1,0-1.8-0.3-2.3-0.8c-0.6-0.6-0.8-1.5-0.8-2.9v-4h-1.3v-2.2h1.3v-2.1L238.7,19.4z"/>
		<path class="st4" d="M246.7,18.7c0.8-0.2,2.4-0.3,3.9-0.3c1.9,0,3,0.2,4,0.8c0.9,0.5,1.6,1.4,1.6,2.6c0,1.2-0.7,2.3-2.2,2.9v0
			c1.5,0.4,2.7,1.6,2.7,3.3c0,1.2-0.6,2.2-1.4,2.9c-1,0.8-2.6,1.2-5.3,1.2c-1.5,0-2.6-0.1-3.3-0.2V18.7z M249.8,23.9h1
			c1.6,0,2.5-0.7,2.5-1.7c0-1-0.8-1.6-2.2-1.6c-0.7,0-1,0-1.3,0.1V23.9z M249.8,29.8c0.3,0,0.7,0,1.2,0c1.4,0,2.6-0.5,2.6-1.9
			c0-1.4-1.2-1.9-2.7-1.9h-1V29.8z"/>
		<path class="st4" d="M258.5,23.9c0-1.1,0.7-1.8,1.8-1.8c1.1,0,1.8,0.7,1.8,1.8c0,1-0.7,1.8-1.8,1.8
			C259.2,25.8,258.5,25,258.5,23.9z M258.5,30.4c0-1.1,0.7-1.8,1.8-1.8c1.1,0,1.8,0.8,1.8,1.8c0,1-0.7,1.8-1.8,1.8
			C259.2,32.2,258.5,31.4,258.5,30.4z"/>
		<path class="st3" d="M201.1,40.4h1.4V50h4.6v1.2h-6V40.4z"/>
		<path class="st3" d="M210.2,41.3c0,0.5-0.3,0.9-0.9,0.9c-0.5,0-0.8-0.4-0.8-0.9c0-0.5,0.4-0.9,0.9-0.9
			C209.9,40.4,210.2,40.8,210.2,41.3z M208.6,51.2v-7.7h1.4v7.7H208.6z"/>
		<path class="st3" d="M213.8,47L213.8,47c0.2-0.3,0.5-0.6,0.7-0.9l2.3-2.7h1.7l-3,3.2l3.4,4.6h-1.7l-2.7-3.7l-0.7,0.8v2.9h-1.4
			V39.8h1.4V47z"/>
		<path class="st3" d="M220.7,47.6c0,1.9,1.2,2.7,2.7,2.7c1,0,1.6-0.2,2.1-0.4l0.2,1c-0.5,0.2-1.3,0.5-2.6,0.5
			c-2.4,0-3.8-1.6-3.8-3.9s1.4-4.2,3.6-4.2c2.5,0,3.2,2.2,3.2,3.6c0,0.3,0,0.5,0,0.7H220.7z M224.8,46.6c0-0.9-0.4-2.3-2-2.3
			c-1.4,0-2,1.3-2.2,2.3H224.8z"/>
		<path class="st3" d="M227.7,49.8c0.4,0.3,1.2,0.6,1.9,0.6c1,0,1.5-0.5,1.5-1.2c0-0.7-0.4-1-1.4-1.4c-1.4-0.5-2-1.3-2-2.2
			c0-1.2,1-2.3,2.7-2.3c0.8,0,1.5,0.2,1.9,0.5l-0.4,1c-0.3-0.2-0.9-0.4-1.6-0.4c-0.8,0-1.3,0.5-1.3,1.1c0,0.6,0.5,0.9,1.5,1.3
			c1.3,0.5,2,1.2,2,2.3c0,1.4-1.1,2.3-2.9,2.3c-0.8,0-1.6-0.2-2.2-0.5L227.7,49.8z"/>
		<path class="st3" d="M237.7,40.6c0.7-0.1,1.7-0.2,2.7-0.2c1.5,0,2.4,0.3,3.1,0.9c0.5,0.5,0.8,1.2,0.8,2c0,1.4-0.9,2.4-2,2.8v0
			c0.8,0.3,1.3,1.1,1.6,2.2c0.4,1.5,0.6,2.5,0.8,3h-1.4c-0.2-0.3-0.4-1.2-0.7-2.6c-0.3-1.5-0.9-2-2.2-2.1h-1.3v4.7h-1.4V40.6z
			 M239.1,45.5h1.4c1.5,0,2.4-0.8,2.4-2c0-1.4-1-2-2.5-2c-0.7,0-1.2,0.1-1.4,0.1V45.5z"/>
		<path class="st3" d="M252.7,49.1c0,0.8,0,1.5,0.1,2.1h-1.2l-0.1-1.3h0c-0.4,0.6-1.2,1.4-2.6,1.4c-1.2,0-2.7-0.7-2.7-3.4v-4.5h1.4
			v4.3c0,1.5,0.4,2.5,1.7,2.5c0.9,0,1.6-0.7,1.9-1.3c0.1-0.2,0.1-0.5,0.1-0.7v-4.8h1.4V49.1z"/>
		<path class="st3" d="M261.7,43.5c0,0.6-0.1,1.2-0.1,2.1v4.5c0,1.8-0.4,2.9-1.1,3.5c-0.8,0.7-1.8,0.9-2.8,0.9c-0.9,0-2-0.2-2.6-0.6
			l0.4-1.1c0.5,0.3,1.3,0.6,2.3,0.6c1.4,0,2.5-0.8,2.5-2.7v-0.9h0c-0.4,0.7-1.3,1.3-2.5,1.3c-1.9,0-3.3-1.6-3.3-3.8
			c0-2.6,1.7-4.1,3.5-4.1c1.3,0,2.1,0.7,2.4,1.3h0l0.1-1.2H261.7z M260.3,46.5c0-0.2,0-0.4-0.1-0.6c-0.3-0.8-0.9-1.5-2-1.5
			c-1.3,0-2.3,1.1-2.3,2.9c0,1.5,0.8,2.8,2.3,2.8c0.9,0,1.6-0.5,2-1.4c0.1-0.2,0.1-0.5,0.1-0.8V46.5z"/>
		<path class="st3" d="M263.9,51.2c0-0.5,0.1-1.3,0.1-2v-9.4h1.4v4.9h0c0.5-0.9,1.4-1.4,2.6-1.4c1.9,0,3.3,1.6,3.3,4
			c0,2.8-1.7,4.1-3.5,4.1c-1.1,0-2-0.4-2.6-1.5h0l-0.1,1.3H263.9z M265.4,48.1c0,0.2,0,0.4,0.1,0.5c0.3,1,1.1,1.6,2.1,1.6
			c1.5,0,2.4-1.2,2.4-3c0-1.6-0.8-2.9-2.3-2.9c-1,0-1.9,0.7-2.1,1.7c0,0.2-0.1,0.4-0.1,0.6V48.1z"/>
		<path class="st3" d="M273.5,43.5l1.7,4.6c0.2,0.5,0.4,1.1,0.5,1.6h0c0.1-0.5,0.3-1.1,0.5-1.6l1.5-4.5h1.5l-2.1,5.5
			c-1,2.7-1.7,4-2.7,4.9c-0.7,0.6-1.4,0.8-1.7,0.9l-0.4-1.2c0.4-0.1,0.8-0.3,1.2-0.7c0.4-0.3,0.9-0.8,1.2-1.6
			c0.1-0.1,0.1-0.3,0.1-0.3s0-0.2-0.1-0.4l-2.9-7.1H273.5z"/>
	</g>
	<g>
		<path class="st3" d="M124.6,285.5V299h-3.1v-13.5H124.6z"/>
		<path class="st3" d="M127.2,292.3c0-1.2,0-2.3-0.1-3.1h2.6l0.1,1.3h0.1c0.4-0.6,1.4-1.6,3-1.6c2,0,3.5,1.3,3.5,4.2v5.8h-3v-5.4
			c0-1.3-0.4-2.1-1.5-2.1c-0.8,0-1.3,0.6-1.5,1.1c-0.1,0.2-0.1,0.5-0.1,0.8v5.6h-3V292.3z"/>
		<path class="st3" d="M142.2,286.4v2.8h2.2v2.2h-2.2v3.5c0,1.2,0.3,1.7,1.2,1.7c0.4,0,0.7,0,0.9-0.1l0,2.3c-0.4,0.2-1.1,0.3-2,0.3
			c-1,0-1.8-0.3-2.3-0.8c-0.6-0.6-0.8-1.5-0.8-2.9v-4h-1.3v-2.2h1.3v-2.1L142.2,286.4z"/>
		<path class="st3" d="M148.4,295.1c0.1,1.3,1.3,1.9,2.8,1.9c1,0,1.9-0.1,2.7-0.4l0.4,2.1c-1,0.4-2.2,0.6-3.5,0.6
			c-3.3,0-5.2-1.9-5.2-5c0-2.5,1.5-5.2,4.9-5.2c3.2,0,4.4,2.5,4.4,4.9c0,0.5-0.1,1-0.1,1.2H148.4z M151.9,293c0-0.7-0.3-2-1.7-2
			c-1.3,0-1.8,1.2-1.9,2H151.9z"/>
		<path class="st3" d="M156.6,292.4c0-1.4,0-2.4-0.1-3.2h2.6l0.1,1.8h0.1c0.5-1.4,1.7-2,2.6-2c0.3,0,0.4,0,0.6,0v2.9
			c-0.2,0-0.5-0.1-0.8-0.1c-1.1,0-1.9,0.6-2.1,1.5c0,0.2-0.1,0.4-0.1,0.7v5h-3V292.4z"/>
		<path class="st3" d="M164.2,296.3c0.6,0.3,1.7,0.7,2.6,0.7c0.9,0,1.3-0.3,1.3-0.8s-0.3-0.7-1.4-1.1c-2-0.7-2.8-1.8-2.8-2.9
			c0-1.8,1.6-3.2,4-3.2c1.1,0,2.2,0.3,2.8,0.6l-0.5,2.1c-0.4-0.2-1.3-0.6-2.1-0.6c-0.7,0-1.2,0.3-1.2,0.8c0,0.5,0.4,0.7,1.6,1.1
			c1.9,0.6,2.6,1.6,2.7,3c0,1.8-1.4,3.2-4.2,3.2c-1.3,0-2.4-0.3-3.2-0.7L164.2,296.3z"/>
		<path class="st3" d="M175.2,295.1c0.1,1.3,1.3,1.9,2.8,1.9c1,0,1.9-0.1,2.7-0.4l0.4,2.1c-1,0.4-2.2,0.6-3.5,0.6
			c-3.3,0-5.2-1.9-5.2-5c0-2.5,1.5-5.2,4.9-5.2c3.2,0,4.4,2.5,4.4,4.9c0,0.5-0.1,1-0.1,1.2H175.2z M178.8,293c0-0.7-0.3-2-1.7-2
			c-1.3,0-1.8,1.2-1.9,2H178.8z"/>
		<path class="st3" d="M190.8,298.8c-0.5,0.2-1.6,0.4-2.7,0.4c-3.2,0-5.2-1.9-5.2-5c0-2.9,2-5.2,5.6-5.2c0.8,0,1.7,0.1,2.3,0.4
			l-0.5,2.3c-0.4-0.2-0.9-0.3-1.7-0.3c-1.6,0-2.6,1.1-2.6,2.7c0,1.8,1.2,2.7,2.7,2.7c0.7,0,1.3-0.1,1.7-0.3L190.8,298.8z"/>
		<path class="st3" d="M196.2,286.4v2.8h2.2v2.2h-2.2v3.5c0,1.2,0.3,1.7,1.2,1.7c0.4,0,0.7,0,0.9-0.1l0,2.3c-0.4,0.2-1.1,0.3-2,0.3
			c-1,0-1.8-0.3-2.3-0.8c-0.6-0.6-0.8-1.5-0.8-2.9v-4h-1.3v-2.2h1.3v-2.1L196.2,286.4z"/>
		<path class="st3" d="M203.2,286.5c0,0.8-0.6,1.5-1.6,1.5c-1,0-1.6-0.7-1.6-1.5c0-0.9,0.6-1.5,1.6-1.5S203.2,285.6,203.2,286.5z
			 M200.1,299v-9.8h3v9.8H200.1z"/>
		<path class="st3" d="M215.2,294c0,3.6-2.5,5.2-5.2,5.2c-2.9,0-5.1-1.9-5.1-5c0-3.2,2.1-5.2,5.2-5.2
			C213.2,289,215.2,291.1,215.2,294z M208.2,294.1c0,1.7,0.7,2.9,2,2.9c1.2,0,1.9-1.2,1.9-2.9c0-1.5-0.6-2.9-1.9-2.9
			C208.7,291.2,208.2,292.7,208.2,294.1z"/>
		<path class="st3" d="M217.1,292.3c0-1.2,0-2.3-0.1-3.1h2.6l0.1,1.3h0.1c0.4-0.6,1.4-1.6,3-1.6c2,0,3.5,1.3,3.5,4.2v5.8h-3v-5.4
			c0-1.3-0.4-2.1-1.5-2.1c-0.8,0-1.3,0.6-1.5,1.1c-0.1,0.2-0.1,0.5-0.1,0.8v5.6h-3V292.3z"/>
		<path class="st3" d="M228.6,290.9c0-1.1,0.7-1.8,1.8-1.8c1.1,0,1.8,0.7,1.8,1.8c0,1-0.7,1.8-1.8,1.8
			C229.4,292.8,228.6,292,228.6,290.9z M228.6,297.4c0-1.1,0.7-1.8,1.8-1.8c1.1,0,1.8,0.8,1.8,1.8c0,1-0.7,1.8-1.8,1.8
			C229.4,299.2,228.6,298.4,228.6,297.4z"/>
		<path class="st3" d="M80.4,307.4h1.4v9.6h4.6v1.2h-6V307.4z"/>
		<path class="st3" d="M89.5,308.3c0,0.5-0.3,0.9-0.9,0.9c-0.5,0-0.8-0.4-0.8-0.9c0-0.5,0.4-0.9,0.9-0.9
			C89.1,307.4,89.5,307.8,89.5,308.3z M87.9,318.2v-7.7h1.4v7.7H87.9z"/>
		<path class="st3" d="M93,314L93,314c0.2-0.3,0.5-0.6,0.7-0.9l2.3-2.7h1.7l-3,3.2l3.4,4.6h-1.7l-2.7-3.7l-0.7,0.8v2.9h-1.4v-11.4
			H93V314z"/>
		<path class="st3" d="M99.9,314.6c0,1.9,1.2,2.7,2.7,2.7c1,0,1.6-0.2,2.1-0.4l0.2,1c-0.5,0.2-1.3,0.5-2.6,0.5
			c-2.4,0-3.8-1.6-3.8-3.9s1.4-4.2,3.6-4.2c2.5,0,3.2,2.2,3.2,3.6c0,0.3,0,0.5,0,0.7H99.9z M104,313.6c0-0.9-0.4-2.3-2-2.3
			c-1.4,0-2,1.3-2.2,2.3H104z"/>
		<path class="st3" d="M107,316.8c0.4,0.3,1.2,0.6,1.9,0.6c1,0,1.5-0.5,1.5-1.2c0-0.7-0.4-1-1.4-1.4c-1.4-0.5-2-1.3-2-2.2
			c0-1.2,1-2.3,2.7-2.3c0.8,0,1.5,0.2,1.9,0.5l-0.4,1c-0.3-0.2-0.9-0.4-1.6-0.4c-0.8,0-1.3,0.5-1.3,1.1c0,0.6,0.5,0.9,1.5,1.3
			c1.3,0.5,2,1.2,2,2.3c0,1.4-1.1,2.3-2.9,2.3c-0.8,0-1.6-0.2-2.2-0.5L107,316.8z"/>
		<path class="st3" d="M116.8,318.2c0-0.5,0.1-1.3,0.1-2v-9.4h1.4v4.9h0c0.5-0.9,1.4-1.4,2.6-1.4c1.9,0,3.3,1.6,3.3,4
			c0,2.8-1.7,4.1-3.5,4.1c-1.1,0-2-0.4-2.6-1.5h0l-0.1,1.3H116.8z M118.3,315.1c0,0.2,0,0.4,0.1,0.5c0.3,1,1.1,1.6,2.1,1.6
			c1.5,0,2.4-1.2,2.4-3c0-1.6-0.8-2.9-2.3-2.9c-1,0-1.9,0.7-2.1,1.7c0,0.2-0.1,0.4-0.1,0.6V315.1z"/>
		<path class="st3" d="M133,314.3c0,2.9-2,4.1-3.9,4.1c-2.1,0-3.7-1.5-3.7-4c0-2.6,1.7-4.1,3.8-4.1C131.5,310.3,133,311.9,133,314.3
			z M126.8,314.3c0,1.7,1,3,2.4,3c1.3,0,2.4-1.3,2.4-3c0-1.3-0.7-3-2.3-3C127.6,311.3,126.8,312.9,126.8,314.3z"/>
		<path class="st3" d="M136.5,308.2v2.2h2v1.1h-2v4.2c0,1,0.3,1.5,1.1,1.5c0.4,0,0.6,0,0.8-0.1l0.1,1.1c-0.3,0.1-0.7,0.2-1.2,0.2
			c-0.7,0-1.2-0.2-1.5-0.6c-0.4-0.4-0.5-1.1-0.5-2v-4.2h-1.2v-1.1h1.2v-1.9L136.5,308.2z"/>
		<path class="st3" d="M140.1,306.8h1.4v4.8h0c0.2-0.4,0.6-0.8,1-1c0.4-0.2,0.9-0.4,1.4-0.4c1,0,2.7,0.6,2.7,3.3v4.6h-1.4v-4.5
			c0-1.2-0.5-2.3-1.8-2.3c-0.9,0-1.6,0.6-1.9,1.4c-0.1,0.2-0.1,0.4-0.1,0.7v4.7h-1.4V306.8z"/>
		<path class="st3" d="M153.8,308.6h-3.3v-1.2h8v1.2h-3.3v9.6h-1.4V308.6z"/>
		<path class="st3" d="M159.3,314.6c0,1.9,1.2,2.7,2.7,2.7c1,0,1.6-0.2,2.1-0.4l0.2,1c-0.5,0.2-1.3,0.5-2.6,0.5
			c-2.4,0-3.8-1.6-3.8-3.9s1.4-4.2,3.6-4.2c2.5,0,3.2,2.2,3.2,3.6c0,0.3,0,0.5,0,0.7H159.3z M163.4,313.6c0-0.9-0.4-2.3-2-2.3
			c-1.4,0-2,1.3-2.2,2.3H163.4z"/>
		<path class="st3" d="M166.5,312.5c0-0.8,0-1.5-0.1-2.1h1.2l0.1,1.3h0c0.4-0.7,1.3-1.5,2.6-1.5c1.1,0,2.7,0.6,2.7,3.3v4.6h-1.4
			v-4.5c0-1.2-0.5-2.3-1.8-2.3c-0.9,0-1.6,0.7-1.9,1.4c-0.1,0.2-0.1,0.4-0.1,0.7v4.7h-1.4V312.5z"/>
		<path class="st3" d="M175.4,312.5c0-0.8,0-1.5-0.1-2.1h1.2l0.1,1.3h0c0.4-0.7,1.3-1.5,2.6-1.5c1.1,0,2.7,0.6,2.7,3.3v4.6h-1.4
			v-4.5c0-1.2-0.5-2.3-1.8-2.3c-0.9,0-1.6,0.7-1.9,1.4c-0.1,0.2-0.1,0.4-0.1,0.7v4.7h-1.4V312.5z"/>
		<path class="st3" d="M185.8,308.3c0,0.5-0.3,0.9-0.9,0.9c-0.5,0-0.8-0.4-0.8-0.9c0-0.5,0.4-0.9,0.9-0.9
			C185.5,307.4,185.8,307.8,185.8,308.3z M184.3,318.2v-7.7h1.4v7.7H184.3z"/>
		<path class="st3" d="M187.8,316.8c0.4,0.3,1.2,0.6,1.9,0.6c1,0,1.5-0.5,1.5-1.2c0-0.7-0.4-1-1.4-1.4c-1.4-0.5-2-1.3-2-2.2
			c0-1.2,1-2.3,2.7-2.3c0.8,0,1.5,0.2,1.9,0.5l-0.4,1c-0.3-0.2-0.9-0.4-1.6-0.4c-0.8,0-1.3,0.5-1.3,1.1c0,0.6,0.5,0.9,1.5,1.3
			c1.3,0.5,2,1.2,2,2.3c0,1.4-1.1,2.3-2.9,2.3c-0.8,0-1.6-0.2-2.2-0.5L187.8,316.8z"/>
		<path class="st3" d="M199.5,314.8l-1.1,3.4H197l3.7-10.8h1.7l3.7,10.8h-1.5l-1.2-3.4H199.5z M203.1,313.7l-1.1-3.1
			c-0.2-0.7-0.4-1.3-0.6-2h0c-0.2,0.6-0.3,1.3-0.5,2l-1.1,3.1H203.1z"/>
		<path class="st3" d="M207.6,318.2v-10.8h1.5l3.5,5.5c0.8,1.3,1.4,2.4,1.9,3.5l0,0c-0.1-1.4-0.2-2.8-0.2-4.4v-4.5h1.3v10.8h-1.4
			l-3.4-5.5c-0.8-1.2-1.5-2.4-2-3.6l0,0c0.1,1.4,0.1,2.7,0.1,4.4v4.6H207.6z"/>
		<path class="st3" d="M218.1,307.6c0.8-0.1,1.9-0.2,3-0.2c2,0,3.4,0.5,4.4,1.3c1,0.9,1.5,2.1,1.5,3.9c0,1.8-0.5,3.2-1.6,4.2
			c-1,1-2.7,1.6-4.8,1.6c-1,0-1.8,0-2.5-0.1V307.6z M219.5,317.1c0.4,0.1,0.9,0.1,1.4,0.1c3,0,4.6-1.7,4.6-4.6
			c0-2.5-1.4-4.2-4.4-4.2c-0.7,0-1.3,0.1-1.6,0.1V317.1z"/>
		<path class="st3" d="M232.2,307.6c0.7-0.1,1.7-0.2,2.7-0.2c1.5,0,2.4,0.3,3.1,0.9c0.5,0.5,0.8,1.2,0.8,2c0,1.4-0.9,2.4-2,2.8v0
			c0.8,0.3,1.3,1.1,1.6,2.2c0.4,1.5,0.6,2.5,0.8,3h-1.4c-0.2-0.3-0.4-1.2-0.7-2.6c-0.3-1.5-0.9-2-2.2-2.1h-1.3v4.7h-1.4V307.6z
			 M233.5,312.5h1.4c1.5,0,2.4-0.8,2.4-2c0-1.4-1-2-2.5-2c-0.7,0-1.2,0.1-1.4,0.1V312.5z"/>
		<path class="st3" d="M247.2,316.1c0,0.8,0,1.5,0.1,2.1H246l-0.1-1.3h0c-0.4,0.6-1.2,1.4-2.6,1.4c-1.2,0-2.7-0.7-2.7-3.4v-4.5h1.4
			v4.3c0,1.5,0.4,2.5,1.7,2.5c0.9,0,1.6-0.7,1.9-1.3c0.1-0.2,0.1-0.5,0.1-0.7v-4.8h1.4V316.1z"/>
		<path class="st3" d="M256.2,310.5c0,0.6-0.1,1.2-0.1,2.1v4.5c0,1.8-0.4,2.9-1.1,3.5c-0.8,0.7-1.8,0.9-2.8,0.9
			c-0.9,0-2-0.2-2.6-0.6l0.4-1.1c0.5,0.3,1.3,0.6,2.3,0.6c1.4,0,2.5-0.8,2.5-2.7v-0.9h0c-0.4,0.7-1.3,1.3-2.5,1.3
			c-1.9,0-3.3-1.6-3.3-3.8c0-2.6,1.7-4.1,3.5-4.1c1.3,0,2.1,0.7,2.4,1.3h0l0.1-1.2H256.2z M254.8,313.5c0-0.2,0-0.4-0.1-0.6
			c-0.3-0.8-0.9-1.5-2-1.5c-1.3,0-2.3,1.1-2.3,2.9c0,1.5,0.8,2.8,2.3,2.8c0.9,0,1.6-0.5,2-1.4c0.1-0.2,0.1-0.5,0.1-0.8V313.5z"/>
		<path class="st3" d="M258.4,318.2c0-0.5,0.1-1.3,0.1-2v-9.4h1.4v4.9h0c0.5-0.9,1.4-1.4,2.6-1.4c1.9,0,3.3,1.6,3.3,4
			c0,2.8-1.7,4.1-3.5,4.1c-1.1,0-2-0.4-2.6-1.5h0l-0.1,1.3H258.4z M259.9,315.1c0,0.2,0,0.4,0.1,0.5c0.3,1,1.1,1.6,2.1,1.6
			c1.5,0,2.4-1.2,2.4-3c0-1.6-0.8-2.9-2.3-2.9c-1,0-1.9,0.7-2.1,1.7c0,0.2-0.1,0.4-0.1,0.6V315.1z"/>
		<path class="st3" d="M268,310.5l1.7,4.6c0.2,0.5,0.4,1.1,0.5,1.6h0c0.1-0.5,0.3-1.1,0.5-1.6l1.5-4.5h1.5l-2.1,5.5
			c-1,2.7-1.7,4-2.7,4.8c-0.7,0.6-1.4,0.8-1.7,0.9l-0.4-1.2c0.4-0.1,0.8-0.3,1.2-0.7c0.4-0.3,0.9-0.8,1.2-1.6
			c0.1-0.1,0.1-0.3,0.1-0.3s0-0.2-0.1-0.4l-2.9-7.1H268z"/>
	</g>
	<line class="st5" x1="176.5" y1="237.8" x2="176.5" y2="279.7"/>
	<polygon class="st3" points="172.1,239.8 176.5,232.2 180.9,239.8 	"/>
	<g>
		<path class="st6" d="M46.5,137.2h1.4v7.2c0,2.9-1.4,3.7-3.3,3.7c-0.5,0-1.1-0.1-1.5-0.3l0.2-1.1c0.3,0.1,0.7,0.2,1.2,0.2
			c1.2,0,2-0.6,2-2.7V137.2z"/>
		<path class="st6" d="M54.4,148l-0.1-1h0c-0.4,0.6-1.3,1.2-2.4,1.2c-1.6,0-2.4-1.1-2.4-2.2c0-1.9,1.7-2.9,4.7-2.9v-0.2
			c0-0.6-0.2-1.8-1.8-1.8c-0.7,0-1.5,0.2-2,0.6l-0.3-0.9c0.6-0.4,1.6-0.7,2.5-0.7c2.4,0,2.9,1.6,2.9,3.2v2.9c0,0.7,0,1.3,0.1,1.9
			H54.4z M54.2,144c-1.5,0-3.3,0.2-3.3,1.7c0,0.9,0.6,1.3,1.3,1.3c1,0,1.6-0.6,1.9-1.3c0-0.1,0.1-0.3,0.1-0.4V144z"/>
		<path class="st6" d="M63.4,147.7c-0.4,0.2-1.2,0.4-2.2,0.4c-2.3,0-3.9-1.6-3.9-4c0-2.4,1.6-4.1,4.2-4.1c0.8,0,1.6,0.2,2,0.4
			l-0.3,1.1c-0.3-0.2-0.9-0.4-1.6-0.4c-1.8,0-2.7,1.3-2.7,2.9c0,1.8,1.2,2.9,2.7,2.9c0.8,0,1.3-0.2,1.7-0.4L63.4,147.7z"/>
		<path class="st6" d="M66.4,143.8L66.4,143.8c0.2-0.3,0.5-0.6,0.7-0.9l2.3-2.7h1.7l-3,3.2l3.4,4.6h-1.7l-2.7-3.7l-0.7,0.8v2.9H65
			v-11.4h1.4V143.8z"/>
	</g>
	<g>
		<path class="st6" d="M82.1,96.4h-3.3v-1.2h8v1.2h-3.3v9.6h-1.4V96.4z"/>
		<path class="st6" d="M87.6,102.4c0,1.9,1.2,2.7,2.7,2.7c1,0,1.6-0.2,2.1-0.4l0.2,1c-0.5,0.2-1.3,0.5-2.6,0.5
			c-2.4,0-3.8-1.6-3.8-3.9s1.4-4.2,3.6-4.2c2.5,0,3.2,2.2,3.2,3.6c0,0.3,0,0.5,0,0.7H87.6z M91.8,101.4c0-0.9-0.4-2.3-2-2.3
			c-1.4,0-2,1.3-2.2,2.3H91.8z"/>
		<path class="st6" d="M94.9,100.7c0-0.9,0-1.7-0.1-2.4H96l0,1.5h0.1c0.4-1,1.2-1.7,2.1-1.7c0.2,0,0.3,0,0.4,0v1.3
			c-0.1,0-0.3,0-0.5,0c-1,0-1.7,0.8-1.9,1.8c0,0.2-0.1,0.4-0.1,0.7v4.1h-1.4V100.7z"/>
		<path class="st6" d="M100.2,100.7c0-0.9,0-1.7-0.1-2.4h1.2l0,1.5h0.1c0.4-1,1.2-1.7,2.1-1.7c0.2,0,0.3,0,0.4,0v1.3
			c-0.1,0-0.3,0-0.5,0c-1,0-1.7,0.8-1.9,1.8c0,0.2-0.1,0.4-0.1,0.7v4.1h-1.4V100.7z"/>
		<path class="st6" d="M106.3,98.3l1.7,4.6c0.2,0.5,0.4,1.1,0.5,1.6h0c0.1-0.5,0.3-1.1,0.5-1.6l1.5-4.5h1.5l-2.1,5.5
			c-1,2.7-1.7,4-2.7,4.9c-0.7,0.6-1.4,0.8-1.7,0.9l-0.4-1.2c0.4-0.1,0.8-0.3,1.2-0.7c0.4-0.3,0.9-0.8,1.2-1.6
			c0.1-0.1,0.1-0.3,0.1-0.3s0-0.2-0.1-0.4l-2.9-7.1H106.3z"/>
	</g>
	<g class="st7">
		<path class="st6" d="M239.2,104.3c0.6,0.4,1.5,0.7,2.5,0.7c1.4,0,2.3-0.8,2.3-1.8c0-1-0.6-1.6-2-2.1c-1.8-0.6-2.8-1.5-2.8-3.1
			c0-1.7,1.4-2.9,3.5-2.9c1.1,0,1.9,0.3,2.4,0.5l-0.4,1.1c-0.4-0.2-1.1-0.5-2-0.5c-1.5,0-2,0.9-2,1.6c0,1,0.7,1.5,2.1,2.1
			c1.8,0.7,2.8,1.6,2.8,3.2c0,1.7-1.2,3.1-3.8,3.1c-1,0-2.2-0.3-2.8-0.7L239.2,104.3z"/>
		<path class="st6" d="M248.1,102.4c0,1.9,1.2,2.7,2.7,2.7c1,0,1.6-0.2,2.1-0.4l0.2,1c-0.5,0.2-1.3,0.5-2.6,0.5
			c-2.4,0-3.8-1.6-3.8-3.9s1.4-4.2,3.6-4.2c2.5,0,3.2,2.2,3.2,3.6c0,0.3,0,0.5,0,0.7H248.1z M252.3,101.4c0-0.9-0.4-2.3-2-2.3
			c-1.4,0-2,1.3-2.2,2.3H252.3z"/>
		<path class="st6" d="M259.7,106l-0.1-1h0c-0.4,0.6-1.3,1.2-2.4,1.2c-1.6,0-2.4-1.1-2.4-2.2c0-1.9,1.7-2.9,4.7-2.9v-0.2
			c0-0.6-0.2-1.8-1.8-1.8c-0.7,0-1.5,0.2-2,0.6l-0.3-0.9c0.6-0.4,1.6-0.7,2.5-0.7c2.4,0,2.9,1.6,2.9,3.2v2.9c0,0.7,0,1.3,0.1,1.9
			H259.7z M259.5,102c-1.5,0-3.3,0.2-3.3,1.7c0,0.9,0.6,1.3,1.3,1.3c1,0,1.6-0.6,1.9-1.3c0-0.1,0.1-0.3,0.1-0.4V102z"/>
		<path class="st6" d="M263.1,100.3c0-0.8,0-1.5-0.1-2.1h1.2l0.1,1.3h0c0.4-0.7,1.3-1.5,2.6-1.5c1.1,0,2.7,0.6,2.7,3.3v4.6h-1.4
			v-4.5c0-1.2-0.5-2.3-1.8-2.3c-0.9,0-1.6,0.7-1.9,1.4c-0.1,0.2-0.1,0.4-0.1,0.7v4.7h-1.4V100.3z"/>
	</g>
	<g class="st7">
		<path class="st6" d="M266.3,137.2h1.4v7.2c0,2.9-1.4,3.7-3.3,3.7c-0.5,0-1.1-0.1-1.5-0.3l0.2-1.1c0.3,0.1,0.7,0.2,1.2,0.2
			c1.2,0,2-0.6,2-2.7V137.2z"/>
		<path class="st6" d="M270.8,144.4c0,1.9,1.2,2.7,2.7,2.7c1,0,1.6-0.2,2.1-0.4l0.2,1c-0.5,0.2-1.3,0.5-2.6,0.5
			c-2.4,0-3.8-1.6-3.8-3.9s1.4-4.2,3.6-4.2c2.5,0,3.2,2.2,3.2,3.6c0,0.3,0,0.5,0,0.7H270.8z M274.9,143.4c0-0.9-0.4-2.3-2-2.3
			c-1.4,0-2,1.3-2.2,2.3H274.9z"/>
		<path class="st6" d="M277.8,146.6c0.4,0.3,1.2,0.6,1.9,0.6c1,0,1.5-0.5,1.5-1.2c0-0.7-0.4-1-1.4-1.4c-1.4-0.5-2-1.3-2-2.2
			c0-1.2,1-2.3,2.7-2.3c0.8,0,1.5,0.2,1.9,0.5l-0.4,1c-0.3-0.2-0.9-0.4-1.6-0.4c-0.8,0-1.3,0.5-1.3,1.1c0,0.6,0.5,0.9,1.5,1.3
			c1.3,0.5,2,1.2,2,2.3c0,1.4-1.1,2.3-2.9,2.3c-0.8,0-1.6-0.2-2.2-0.5L277.8,146.6z"/>
		<path class="st6" d="M284.1,146.6c0.4,0.3,1.2,0.6,1.9,0.6c1,0,1.5-0.5,1.5-1.2c0-0.7-0.4-1-1.4-1.4c-1.4-0.5-2-1.3-2-2.2
			c0-1.2,1-2.3,2.7-2.3c0.8,0,1.5,0.2,1.9,0.5l-0.4,1c-0.3-0.2-0.9-0.4-1.6-0.4c-0.8,0-1.3,0.5-1.3,1.1c0,0.6,0.5,0.9,1.5,1.3
			c1.3,0.5,2,1.2,2,2.3c0,1.4-1.1,2.3-2.9,2.3c-0.8,0-1.6-0.2-2.2-0.5L284.1,146.6z"/>
		<path class="st6" d="M292.2,138.1c0,0.5-0.3,0.9-0.9,0.9c-0.5,0-0.8-0.4-0.8-0.9c0-0.5,0.4-0.9,0.9-0.9
			C291.9,137.2,292.2,137.6,292.2,138.1z M290.7,148v-7.7h1.4v7.7H290.7z"/>
		<path class="st6" d="M299.9,147.7c-0.4,0.2-1.2,0.4-2.2,0.4c-2.3,0-3.9-1.6-3.9-4c0-2.4,1.6-4.1,4.2-4.1c0.8,0,1.6,0.2,2,0.4
			l-0.3,1.1c-0.3-0.2-0.9-0.4-1.6-0.4c-1.8,0-2.7,1.3-2.7,2.9c0,1.8,1.2,2.9,2.7,2.9c0.8,0,1.3-0.2,1.7-0.4L299.9,147.7z"/>
		<path class="st6" d="M305.9,148l-0.1-1h0c-0.4,0.6-1.3,1.2-2.4,1.2c-1.6,0-2.4-1.1-2.4-2.2c0-1.9,1.7-2.9,4.7-2.9v-0.2
			c0-0.6-0.2-1.8-1.8-1.8c-0.7,0-1.5,0.2-2,0.6l-0.3-0.9c0.6-0.4,1.6-0.7,2.5-0.7c2.4,0,2.9,1.6,2.9,3.2v2.9c0,0.7,0,1.3,0.1,1.9
			H305.9z M305.7,144c-1.5,0-3.3,0.2-3.3,1.7c0,0.9,0.6,1.3,1.3,1.3c1,0,1.6-0.6,1.9-1.3c0-0.1,0.1-0.3,0.1-0.4V144z"/>
	</g>
	<g>
		<path class="st6" d="M80.7,227.4h-4.2v3.9h4.7v1.2h-6.1v-10.8H81v1.2h-4.4v3.4h4.2V227.4z"/>
		<path class="st6" d="M83,221.1h1.4v11.4H83V221.1z"/>
		<path class="st6" d="M86.8,221.1h1.4v11.4h-1.4V221.1z"/>
		<path class="st6" d="M94.8,232.5l-0.1-1h0c-0.4,0.6-1.3,1.2-2.4,1.2c-1.6,0-2.4-1.1-2.4-2.2c0-1.9,1.7-2.9,4.7-2.9v-0.2
			c0-0.6-0.2-1.8-1.8-1.8c-0.7,0-1.5,0.2-2,0.6l-0.3-0.9c0.6-0.4,1.6-0.7,2.5-0.7c2.4,0,2.9,1.6,2.9,3.2v2.9c0,0.7,0,1.3,0.1,1.9
			H94.8z M94.6,228.5c-1.5,0-3.3,0.2-3.3,1.7c0,0.9,0.6,1.3,1.3,1.3c1,0,1.6-0.6,1.9-1.3c0-0.1,0.1-0.3,0.1-0.4V228.5z"/>
	</g>
	<g class="st7">
		<path class="st6" d="M275.9,190.6l-1.1,3.4h-1.4l3.7-10.8h1.7l3.7,10.8h-1.5l-1.2-3.4H275.9z M279.4,189.5l-1.1-3.1
			c-0.2-0.7-0.4-1.3-0.6-2h0c-0.2,0.6-0.3,1.3-0.5,2l-1.1,3.1H279.4z"/>
		<path class="st6" d="M283.8,188.3c0-0.8,0-1.5-0.1-2.1h1.2l0.1,1.3h0c0.4-0.7,1.3-1.5,2.6-1.5c1.1,0,2.7,0.6,2.7,3.3v4.6H289v-4.5
			c0-1.2-0.5-2.3-1.8-2.3c-0.9,0-1.6,0.7-1.9,1.4c-0.1,0.2-0.1,0.4-0.1,0.7v4.7h-1.4V188.3z"/>
		<path class="st6" d="M292.7,188.3c0-0.8,0-1.5-0.1-2.1h1.2l0.1,1.3h0c0.4-0.7,1.3-1.5,2.6-1.5c1.1,0,2.7,0.6,2.7,3.3v4.6h-1.4
			v-4.5c0-1.2-0.5-2.3-1.8-2.3c-0.9,0-1.6,0.7-1.9,1.4c-0.1,0.2-0.1,0.4-0.1,0.7v4.7h-1.4V188.3z"/>
		<path class="st6" d="M305.9,194l-0.1-1h0c-0.4,0.6-1.3,1.2-2.4,1.2c-1.6,0-2.4-1.1-2.4-2.2c0-1.9,1.7-2.9,4.7-2.9v-0.2
			c0-0.6-0.2-1.8-1.8-1.8c-0.7,0-1.5,0.2-2,0.6l-0.3-0.9c0.6-0.4,1.6-0.7,2.5-0.7c2.4,0,2.9,1.6,2.9,3.2v2.9c0,0.7,0,1.3,0.1,1.9
			H305.9z M305.7,190c-1.5,0-3.3,0.2-3.3,1.7c0,0.9,0.6,1.3,1.3,1.3c1,0,1.6-0.6,1.9-1.3c0-0.1,0.1-0.3,0.1-0.4V190z"/>
	</g>
	<g>
		<path class="st6" d="M46.3,184.4H43v-1.2h8v1.2h-3.3v9.6h-1.4V184.4z"/>
		<path class="st6" d="M52.1,182.6h1.4v4.8h0c0.2-0.4,0.6-0.8,1-1c0.4-0.2,0.9-0.4,1.4-0.4c1,0,2.7,0.6,2.7,3.3v4.6h-1.4v-4.4
			c0-1.2-0.5-2.3-1.8-2.3c-0.9,0-1.6,0.6-1.9,1.4c-0.1,0.2-0.1,0.4-0.1,0.7v4.7h-1.4V182.6z"/>
		<path class="st6" d="M68,190.1c0,2.9-2,4.1-3.9,4.1c-2.1,0-3.7-1.5-3.7-4c0-2.6,1.7-4.1,3.8-4.1C66.4,186.1,68,187.7,68,190.1z
			 M61.8,190.1c0,1.7,1,3,2.4,3c1.3,0,2.4-1.3,2.4-3c0-1.3-0.7-3-2.3-3C62.5,187.1,61.8,188.7,61.8,190.1z"/>
		<path class="st6" d="M69.7,188.3c0-0.8,0-1.5-0.1-2.1h1.2l0.1,1.2h0c0.4-0.7,1.2-1.4,2.4-1.4c1.1,0,1.9,0.6,2.2,1.6h0
			c0.2-0.4,0.5-0.8,0.9-1c0.5-0.4,1-0.5,1.7-0.5c1,0,2.5,0.7,2.5,3.4v4.6h-1.4v-4.4c0-1.5-0.5-2.4-1.7-2.4c-0.8,0-1.4,0.6-1.7,1.3
			c-0.1,0.2-0.1,0.4-0.1,0.7v4.8h-1.4v-4.6c0-1.2-0.5-2.1-1.6-2.1c-0.9,0-1.5,0.7-1.7,1.4c-0.1,0.2-0.1,0.4-0.1,0.7v4.7h-1.4V188.3z
			"/>
		<path class="st6" d="M87.4,194l-0.1-1h0c-0.4,0.6-1.3,1.2-2.4,1.2c-1.6,0-2.4-1.1-2.4-2.2c0-1.9,1.7-2.9,4.7-2.9v-0.2
			c0-0.6-0.2-1.8-1.8-1.8c-0.7,0-1.5,0.2-2,0.6l-0.3-0.9c0.6-0.4,1.6-0.7,2.5-0.7c2.4,0,2.9,1.6,2.9,3.2v2.9c0,0.7,0,1.3,0.1,1.9
			H87.4z M87.2,190c-1.5,0-3.3,0.2-3.3,1.7c0,0.9,0.6,1.3,1.3,1.3c1,0,1.6-0.6,1.9-1.3c0-0.1,0.1-0.3,0.1-0.4V190z"/>
		<path class="st6" d="M90.6,192.6c0.4,0.3,1.2,0.6,1.9,0.6c1,0,1.5-0.5,1.5-1.2c0-0.7-0.4-1-1.4-1.4c-1.4-0.5-2-1.3-2-2.2
			c0-1.2,1-2.3,2.7-2.3c0.8,0,1.5,0.2,1.9,0.5l-0.4,1c-0.3-0.2-0.9-0.4-1.6-0.4c-0.8,0-1.3,0.5-1.3,1.1c0,0.6,0.5,0.9,1.5,1.3
			c1.3,0.5,2,1.2,2,2.3c0,1.4-1.1,2.3-2.9,2.3c-0.8,0-1.6-0.2-2.2-0.5L90.6,192.6z"/>
	</g>
	<g class="st7">
		<path class="st6" d="M237.4,221.9c0.8-0.1,1.9-0.2,3-0.2c2,0,3.4,0.5,4.4,1.3c1,0.9,1.5,2.1,1.5,3.9c0,1.8-0.5,3.2-1.6,4.2
			c-1,1-2.7,1.6-4.8,1.6c-1,0-1.8,0-2.5-0.1V221.9z M238.8,231.4c0.4,0.1,0.9,0.1,1.4,0.1c3,0,4.6-1.7,4.6-4.6
			c0-2.5-1.4-4.2-4.4-4.2c-0.7,0-1.3,0.1-1.6,0.1V231.4z"/>
		<path class="st6" d="M252.3,232.5l-0.1-1h0c-0.4,0.6-1.3,1.2-2.4,1.2c-1.6,0-2.4-1.1-2.4-2.2c0-1.9,1.7-2.9,4.7-2.9v-0.2
			c0-0.6-0.2-1.8-1.8-1.8c-0.7,0-1.5,0.2-2,0.6l-0.3-0.9c0.6-0.4,1.6-0.7,2.5-0.7c2.4,0,2.9,1.6,2.9,3.2v2.9c0,0.7,0,1.3,0.1,1.9
			H252.3z M252.1,228.5c-1.5,0-3.3,0.2-3.3,1.7c0,0.9,0.6,1.3,1.3,1.3c1,0,1.6-0.6,1.9-1.3c0-0.1,0.1-0.3,0.1-0.4V228.5z"/>
		<path class="st6" d="M256.1,224.8l1.5,4.4c0.3,0.7,0.5,1.3,0.6,2h0c0.2-0.6,0.4-1.3,0.7-2l1.5-4.4h1.5l-3,7.7h-1.3l-2.9-7.7H256.1
			z"/>
		<path class="st6" d="M264.8,222.6c0,0.5-0.3,0.9-0.9,0.9c-0.5,0-0.8-0.4-0.8-0.9c0-0.5,0.4-0.9,0.9-0.9
			C264.5,221.7,264.8,222.1,264.8,222.6z M263.3,232.5v-7.7h1.4v7.7H263.3z"/>
		<path class="st6" d="M273.7,221.1v9.4c0,0.7,0,1.5,0.1,2h-1.3l-0.1-1.3h0c-0.4,0.9-1.4,1.5-2.6,1.5c-1.9,0-3.3-1.6-3.3-3.9
			c0-2.6,1.6-4.2,3.5-4.2c1.2,0,2,0.6,2.3,1.2h0v-4.6H273.7z M272.3,227.9c0-0.2,0-0.4-0.1-0.6c-0.2-0.9-1-1.6-2-1.6
			c-1.5,0-2.3,1.3-2.3,3c0,1.6,0.8,2.9,2.3,2.9c0.9,0,1.8-0.6,2.1-1.7c0-0.2,0.1-0.4,0.1-0.6V227.9z"/>
	</g>
	<g class="st7">
		<path class="st6" d="M168,138.3c-0.1-1.5-0.2-3.3-0.2-4.7h0c-0.4,1.3-0.8,2.6-1.4,4.1l-1.9,5.2h-1.1l-1.7-5.1
			c-0.5-1.5-0.9-2.9-1.2-4.2h0c0,1.3-0.1,3.2-0.2,4.8L160,143h-1.3l0.8-10.8h1.8l1.8,5.2c0.4,1.3,0.8,2.5,1.1,3.6h0
			c0.3-1.1,0.7-2.3,1.1-3.6l1.9-5.2h1.8l0.7,10.8h-1.4L168,138.3z"/>
		<path class="st6" d="M176.1,143l-0.1-1h0c-0.4,0.6-1.3,1.2-2.4,1.2c-1.6,0-2.4-1.1-2.4-2.2c0-1.9,1.7-2.9,4.7-2.9v-0.2
			c0-0.6-0.2-1.8-1.8-1.8c-0.7,0-1.5,0.2-2,0.6l-0.3-0.9c0.6-0.4,1.6-0.7,2.5-0.7c2.4,0,2.9,1.6,2.9,3.2v2.9c0,0.7,0,1.3,0.1,1.9
			H176.1z M175.9,139c-1.5,0-3.3,0.2-3.3,1.7c0,0.9,0.6,1.3,1.3,1.3c1,0,1.6-0.6,1.9-1.3c0-0.1,0.1-0.3,0.1-0.4V139z"/>
		<path class="st6" d="M179.6,137.7c0-0.9,0-1.7-0.1-2.4h1.2l0,1.5h0.1c0.4-1,1.2-1.7,2.1-1.7c0.2,0,0.3,0,0.4,0v1.3
			c-0.1,0-0.3,0-0.5,0c-1,0-1.7,0.8-1.9,1.8c0,0.2-0.1,0.4-0.1,0.7v4.1h-1.4V137.7z"/>
		<path class="st6" d="M186.3,138.8L186.3,138.8c0.2-0.3,0.5-0.6,0.7-0.9l2.3-2.7h1.7l-3,3.2l3.4,4.6h-1.7l-2.7-3.7l-0.7,0.8v2.9
			h-1.4v-11.4h1.4V138.8z"/>
	</g>
	<g class="st7">
		<path class="st6" d="M166.6,182.2h1.4v7.2c0,2.9-1.4,3.7-3.3,3.7c-0.5,0-1.1-0.1-1.5-0.3l0.2-1.1c0.3,0.1,0.7,0.2,1.2,0.2
			c1.2,0,2-0.6,2-2.7V182.2z"/>
		<path class="st6" d="M177.3,189.1c0,2.9-2,4.1-3.9,4.1c-2.1,0-3.7-1.5-3.7-4c0-2.6,1.7-4.1,3.8-4.1
			C175.8,185.1,177.3,186.7,177.3,189.1z M171.1,189.1c0,1.7,1,3,2.4,3c1.3,0,2.4-1.3,2.4-3c0-1.3-0.7-3-2.3-3
			C171.9,186.1,171.1,187.7,171.1,189.1z"/>
		<path class="st6" d="M179.8,189.4c0,1.9,1.2,2.7,2.7,2.7c1,0,1.6-0.2,2.1-0.4l0.2,1c-0.5,0.2-1.3,0.5-2.6,0.5
			c-2.4,0-3.8-1.6-3.8-3.9s1.4-4.2,3.6-4.2c2.5,0,3.2,2.2,3.2,3.6c0,0.3,0,0.5,0,0.7H179.8z M184,188.4c0-0.9-0.4-2.3-2-2.3
			c-1.4,0-2,1.3-2.2,2.3H184z"/>
	</g>
	<g>
	</g>
	<g>
	</g>
	<g>
	</g>
	<g>
	</g>
	<g>
	</g>
	<g>
	</g>
	<g>
	</g>
	<g>
	</g>
	<g>
	</g>
	<g>
	</g>
</g>
</svg>
