<?xml version="1.0" encoding="utf-8"?>
<!-- Generator: Adobe Illustrator 16.0.0, SVG Export Plug-In . SVG Version: 6.00 Build 0)  -->
<!DOCTYPE svg PUBLIC "-//W3C//DTD SVG 1.1//EN" "http://www.w3.org/Graphics/SVG/1.1/DTD/svg11.dtd">
<svg version="1.1" xmlns="http://www.w3.org/2000/svg" xmlns:xlink="http://www.w3.org/1999/xlink" x="0px" y="0px" width="350px"
	 height="570px" viewBox="0 0 350 570" enable-background="new 0 0 350 570" xml:space="preserve">
<g id="Layer_2">
	<g>
		<g>
			<line fill="none" stroke="#333333" stroke-miterlimit="10" x1="245.434" y1="498.5" x2="245.434" y2="517"/>
			<g>
				<rect x="242.184" y="498" fill="#333333" width="6.5" height="1"/>
			</g>
			<g>
				<rect x="242.184" y="516.5" fill="#333333" width="6.5" height="1"/>
			</g>
		</g>
	</g>
	<g>
		<g>
			<line fill="none" stroke="#333333" stroke-miterlimit="10" x1="207.412" y1="508.25" x2="207.412" y2="522.75"/>
			<g>
				<rect x="204.162" y="507.75" fill="#333333" width="6.5" height="1"/>
			</g>
			<g>
				<rect x="204.162" y="522.25" fill="#333333" width="6.5" height="1"/>
			</g>
		</g>
	</g>
	<g>
		<g>
			<line fill="none" stroke="#333333" stroke-miterlimit="10" x1="226.172" y1="484.064" x2="226.172" y2="511.936"/>
			<g>
				<rect x="222.922" y="483.564" fill="#333333" width="6.5" height="1"/>
			</g>
			<g>
				<rect x="222.922" y="511.436" fill="#333333" width="6.5" height="1"/>
			</g>
		</g>
	</g>
	<polyline fill="none" stroke="#9FC66B" stroke-width="2" stroke-miterlimit="10" points="207.412,515.5 226.172,498 
		245.434,507.75 264.695,477.75 283.956,489.564 303.217,493.564 	"/>
	<text transform="matrix(1 0 0 1 30.6836 270.8643)" fill="#B3B3B3" font-family="'MyriadPro-Light'" font-size="11.5247">0</text>
	<g>
		<g>
			<line fill="none" stroke="#333333" stroke-miterlimit="10" x1="264.695" y1="469.001" x2="264.695" y2="486.499"/>
			<g>
				<rect x="261.445" y="468.501" fill="#333333" width="6.5" height="1"/>
			</g>
			<g>
				<rect x="261.445" y="485.999" fill="#333333" width="6.5" height="1"/>
			</g>
		</g>
	</g>
	<g>
		<g>
			<line fill="none" stroke="#333333" stroke-miterlimit="10" x1="303.217" y1="483.334" x2="303.217" y2="503.795"/>
			<g>
				<rect x="299.967" y="482.834" fill="#333333" width="6.5" height="1"/>
			</g>
			<g>
				<rect x="299.967" y="503.295" fill="#333333" width="6.5" height="1"/>
			</g>
		</g>
	</g>
	<g>
		<g>
			<line fill="none" stroke="#333333" stroke-miterlimit="10" x1="283.956" y1="484.834" x2="283.956" y2="494.295"/>
			<g>
				<rect x="280.706" y="484.334" fill="#333333" width="6.5" height="1"/>
			</g>
			<g>
				<rect x="280.706" y="493.795" fill="#333333" width="6.5" height="1"/>
			</g>
		</g>
	</g>
	<line fill="none" stroke="#CCCCCC" stroke-width="2" stroke-miterlimit="10" x1="42.164" y1="258.462" x2="320.998" y2="258.462"/>
	
		<line fill="none" stroke="#CCCCCC" stroke-width="2" stroke-miterlimit="10" x1="181.367" y1="258.462" x2="181.367" y2="252.685"/>
	
		<line fill="none" stroke="#CCCCCC" stroke-width="2" stroke-miterlimit="10" x1="320.037" y1="258.462" x2="320.037" y2="252.685"/>
	<text transform="matrix(1 0 0 1 22.7583 218.3379)" fill="#B3B3B3" font-family="'MyriadPro-Light'" font-size="11.5247">0.2</text>
	<text transform="matrix(1 0 0 1 22.7583 172.1162)" fill="#B3B3B3" font-family="'MyriadPro-Light'" font-size="11.5247">0.4</text>
	<text transform="matrix(1 0 0 1 22.7583 126.8525)" fill="#B3B3B3" font-family="'MyriadPro-Light'" font-size="11.5247">0.6</text>
	<text transform="matrix(1 0 0 1 22.7583 80.6294)" fill="#B3B3B3" font-family="'MyriadPro-Light'" font-size="11.5247">0.8</text>
	<text transform="matrix(1 0 0 1 22.7583 34.4058)" fill="#B3B3B3" font-family="'MyriadPro-Light'" font-size="11.5247">1.0</text>
	<line fill="none" stroke="#CCCCCC" stroke-width="2" stroke-miterlimit="10" x1="42.698" y1="258.462" x2="42.698" y2="29.811"/>
	<g>
		<line fill="none" stroke="#CCCCCC" stroke-width="2" stroke-miterlimit="10" x1="42.698" y1="215.241" x2="48.476" y2="215.241"/>
		<line fill="none" stroke="#CCCCCC" stroke-width="2" stroke-miterlimit="10" x1="42.698" y1="169.018" x2="48.476" y2="169.018"/>
		<line fill="none" stroke="#CCCCCC" stroke-width="2" stroke-miterlimit="10" x1="42.698" y1="122.793" x2="48.476" y2="122.793"/>
		<line fill="none" stroke="#CCCCCC" stroke-width="2" stroke-miterlimit="10" x1="42.698" y1="76.57" x2="48.476" y2="76.57"/>
		<line fill="none" stroke="#CCCCCC" stroke-width="2" stroke-miterlimit="10" x1="42.698" y1="30.347" x2="48.476" y2="30.347"/>
	</g>
	<circle fill="#333333" cx="181.366" cy="136.02" r="4"/>
	<g>
		<g>
			<line fill="none" stroke="#333333" stroke-width="2" stroke-miterlimit="10" x1="181.366" y1="60" x2="181.366" y2="212.039"/>
			<g>
				<rect x="174.866" y="59" fill="#333333" width="13" height="2"/>
			</g>
			<g>
				<rect x="174.866" y="211.039" fill="#333333" width="13" height="2"/>
			</g>
		</g>
	</g>
	<circle fill="#333333" cx="56" cy="354.718" r="2.5"/>
	<circle fill="#333333" cx="93" cy="376" r="2.5"/>
	<circle fill="#333333" cx="133.5" cy="354.066" r="2.5"/>
	<g>
		<g>
			<line fill="none" stroke="#333333" stroke-miterlimit="10" x1="56" y1="340.5" x2="56" y2="368.936"/>
			<g>
				<rect x="52.75" y="340" fill="#333333" width="6.5" height="1"/>
			</g>
			<g>
				<rect x="52.75" y="368.436" fill="#333333" width="6.5" height="1"/>
			</g>
		</g>
	</g>
	<g>
		<g>
			<line fill="none" stroke="#333333" stroke-miterlimit="10" x1="45.75" y1="354.718" x2="66.25" y2="354.718"/>
			<g>
				<rect x="45.25" y="351.468" fill="#333333" width="1" height="6.5"/>
			</g>
			<g>
				<rect x="65.75" y="351.468" fill="#333333" width="1" height="6.5"/>
			</g>
		</g>
	</g>
	<g>
		<g>
			<line fill="none" stroke="#333333" stroke-miterlimit="10" x1="93" y1="362.5" x2="93" y2="389.5"/>
			<g>
				<rect x="89.75" y="362" fill="#333333" width="6.5" height="1"/>
			</g>
			<g>
				<rect x="89.75" y="389" fill="#333333" width="6.5" height="1"/>
			</g>
		</g>
	</g>
	<g>
		<g>
			<line fill="none" stroke="#333333" stroke-miterlimit="10" x1="79.75" y1="376" x2="106.25" y2="376"/>
			<g>
				<rect x="79.25" y="372.75" fill="#333333" width="1" height="6.5"/>
			</g>
			<g>
				<rect x="105.75" y="372.75" fill="#333333" width="1" height="6.5"/>
			</g>
		</g>
	</g>
	<g>
		<g>
			<line fill="none" stroke="#333333" stroke-miterlimit="10" x1="133.5" y1="339.197" x2="133.5" y2="368.936"/>
			<g>
				<rect x="130.25" y="338.697" fill="#333333" width="6.5" height="1"/>
			</g>
			<g>
				<rect x="130.25" y="368.436" fill="#333333" width="6.5" height="1"/>
			</g>
		</g>
	</g>
	<g>
		<g>
			<line fill="none" stroke="#333333" stroke-miterlimit="10" x1="117.5" y1="354.066" x2="149.5" y2="354.066"/>
			<g>
				<rect x="117" y="350.816" fill="#333333" width="1" height="6.5"/>
			</g>
			<g>
				<rect x="149" y="350.816" fill="#333333" width="1" height="6.5"/>
			</g>
		</g>
	</g>
	<circle fill="#333333" cx="217.662" cy="359.306" r="2.5"/>
	<circle fill="#333333" cx="255.662" cy="380.588" r="2.5"/>
	<circle fill="#9FC66B" cx="207.412" cy="515.5" r="2.5"/>
	<circle fill="#9FC66B" cx="226.172" cy="498" r="2.5"/>
	<circle fill="#9FC66B" cx="245.434" cy="507.75" r="2.5"/>
	<circle fill="#9FC66B" cx="264.695" cy="477.75" r="2.5"/>
	<circle fill="#9FC66B" cx="283.956" cy="489.564" r="2.5"/>
	<circle fill="#9FC66B" cx="303.217" cy="493.564" r="2.5"/>
	<circle fill="#333333" cx="295.162" cy="358.654" r="2.5"/>
	<g>
		<g>
			<line fill="none" stroke="#333333" stroke-miterlimit="10" x1="217.662" y1="345.088" x2="217.662" y2="373.523"/>
			<g>
				<rect x="214.412" y="344.588" fill="#333333" width="6.5" height="1"/>
			</g>
			<g>
				<rect x="214.412" y="373.023" fill="#333333" width="6.5" height="1"/>
			</g>
		</g>
	</g>
	<g>
		<g>
			<line fill="none" stroke="#333333" stroke-miterlimit="10" x1="255.662" y1="369.436" x2="255.662" y2="391.74"/>
			<g>
				<rect x="252.412" y="368.936" fill="#333333" width="6.5" height="1"/>
			</g>
			<g>
				<rect x="252.412" y="391.24" fill="#333333" width="6.5" height="1"/>
			</g>
		</g>
	</g>
	<g>
		<g>
			<line fill="none" stroke="#333333" stroke-miterlimit="10" x1="295.162" y1="339.197" x2="295.162" y2="378.111"/>
			<g>
				<rect x="291.912" y="338.697" fill="#333333" width="6.5" height="1"/>
			</g>
			<g>
				<rect x="291.912" y="377.611" fill="#333333" width="6.5" height="1"/>
			</g>
		</g>
	</g>
	<rect x="42.044" y="509" fill="#9FC66B" width="28.456" height="32.333"/>
	<rect x="80.658" y="498" fill="#9FC66B" width="28.456" height="43.333"/>
	<rect x="119.272" y="502.283" fill="#9FC66B" width="28.456" height="39.05"/>
	<g>
		<g>
			<line fill="none" stroke="#333333" stroke-miterlimit="10" x1="56.272" y1="495.5" x2="56.272" y2="522.5"/>
			<g>
				<rect x="53.022" y="495" fill="#333333" width="6.5" height="1"/>
			</g>
			<g>
				<rect x="53.022" y="522" fill="#333333" width="6.5" height="1"/>
			</g>
		</g>
	</g>
	<g>
		<g>
			<line fill="none" stroke="#333333" stroke-miterlimit="10" x1="95.5" y1="490.5" x2="95.5" y2="505.5"/>
			<g>
				<rect x="92.25" y="490" fill="#333333" width="6.5" height="1"/>
			</g>
			<g>
				<rect x="92.25" y="505" fill="#333333" width="6.5" height="1"/>
			</g>
		</g>
	</g>
	<g>
		<g>
			<line fill="none" stroke="#333333" stroke-miterlimit="10" x1="133.5" y1="479.5" x2="133.5" y2="526.064"/>
			<g>
				<rect x="130.25" y="479" fill="#333333" width="6.5" height="1"/>
			</g>
			<g>
				<rect x="130.25" y="525.564" fill="#333333" width="6.5" height="1"/>
			</g>
		</g>
	</g>
</g>
<g id="Layer_1">
	<text transform="matrix(1 0 0 1 245.5 141.0195)" fill="#FF0000" font-family="'Helvetica'" font-size="14">Data point</text>
	<text transform="matrix(1 0 0 1 22.5 315.0195)" fill="#333333" font-family="'Helvetica-Bold'" font-size="14">Scatterplot</text>
	<text transform="matrix(1 0 0 1 22.5 451.0195)" fill="#333333" font-family="'Helvetica-Bold'" font-size="14">Bar Chart</text>
	<text transform="matrix(1 0 0 1 185.6504 451.0195)" fill="#333333" font-family="'Helvetica-Bold'" font-size="14">Line Graph</text>
	<text transform="matrix(1 0 0 1 185.6504 315.0195)" fill="#333333" font-family="'Helvetica-Bold'" font-size="14">Dot Plot</text>
	<text transform="matrix(1 0 0 1 153.5 44.4058)" fill="#FF0000" font-family="'Helvetica'" font-size="14">Error bar</text>
	<text transform="matrix(1 0 0 1 88.5 216.2412)" fill="#FF0000" font-family="'Helvetica'" font-size="14">Cap</text>
	<g>
		<g>
			<line fill="none" stroke="#FF0000" stroke-miterlimit="10" x1="241" y1="136.02" x2="188.584" y2="136.02"/>
			<g>
				<polygon fill="#FF0000" points="191.898,131.93 192.58,132.662 188.969,136.019 192.58,139.376 191.898,140.108 187.5,136.019 
									"/>
			</g>
		</g>
	</g>
	<g>
		<g>
			<line fill="none" stroke="#FF0000" stroke-miterlimit="10" x1="119" y1="212.038" x2="171.416" y2="212.038"/>
			<g>
				<polygon fill="#FF0000" points="168.102,216.128 167.42,215.396 171.031,212.039 167.42,208.682 168.102,207.949 172.5,212.039 
									"/>
			</g>
		</g>
	</g>
	<polyline fill="none" stroke="#CCCCCC" stroke-width="2" stroke-miterlimit="10" points="160.35,407.872 24.522,407.872 
		24.522,330 	"/>
	<polyline fill="none" stroke="#CCCCCC" stroke-width="2" stroke-miterlimit="10" points="323.478,407.872 187.65,407.872 
		187.65,330 	"/>
	<polyline fill="none" stroke="#CCCCCC" stroke-width="2" stroke-miterlimit="10" points="160.35,541.333 24.522,541.333 
		24.522,463.461 	"/>
	<line fill="none" stroke="#CCCCCC" stroke-width="2" stroke-miterlimit="10" x1="25.522" y1="350.218" x2="30.167" y2="350.218"/>
	<line fill="none" stroke="#CCCCCC" stroke-width="2" stroke-miterlimit="10" x1="25.522" y1="369.436" x2="30.167" y2="369.436"/>
	<line fill="none" stroke="#CCCCCC" stroke-width="2" stroke-miterlimit="10" x1="25.522" y1="388.654" x2="30.167" y2="388.654"/>
	<line fill="none" stroke="#CCCCCC" stroke-width="2" stroke-miterlimit="10" x1="25.522" y1="483.179" x2="30.167" y2="483.179"/>
	<line fill="none" stroke="#CCCCCC" stroke-width="2" stroke-miterlimit="10" x1="25.522" y1="502.396" x2="30.167" y2="502.396"/>
	<line fill="none" stroke="#CCCCCC" stroke-width="2" stroke-miterlimit="10" x1="25.522" y1="521.615" x2="30.167" y2="521.615"/>
	<line fill="none" stroke="#CCCCCC" stroke-width="2" stroke-miterlimit="10" x1="188.65" y1="350.218" x2="193.295" y2="350.218"/>
	<line fill="none" stroke="#CCCCCC" stroke-width="2" stroke-miterlimit="10" x1="188.65" y1="369.436" x2="193.295" y2="369.436"/>
	<line fill="none" stroke="#CCCCCC" stroke-width="2" stroke-miterlimit="10" x1="188.65" y1="388.654" x2="193.295" y2="388.654"/>
	<line fill="none" stroke="#CCCCCC" stroke-width="2" stroke-miterlimit="10" x1="43.784" y1="402.228" x2="43.784" y2="406.872"/>
	<line fill="none" stroke="#CCCCCC" stroke-width="2" stroke-miterlimit="10" x1="63.044" y1="402.228" x2="63.044" y2="406.872"/>
	<line fill="none" stroke="#CCCCCC" stroke-width="2" stroke-miterlimit="10" x1="82.306" y1="402.228" x2="82.306" y2="406.872"/>
	
		<line fill="none" stroke="#CCCCCC" stroke-width="2" stroke-miterlimit="10" x1="101.567" y1="402.228" x2="101.567" y2="406.872"/>
	
		<line fill="none" stroke="#CCCCCC" stroke-width="2" stroke-miterlimit="10" x1="120.828" y1="402.228" x2="120.828" y2="406.872"/>
	
		<line fill="none" stroke="#CCCCCC" stroke-width="2" stroke-miterlimit="10" x1="140.089" y1="402.228" x2="140.089" y2="406.872"/>
	<g>
		<polyline fill="none" stroke="#CCCCCC" stroke-width="2" stroke-miterlimit="10" points="323.478,541.219 187.65,541.219 
			187.65,463.347 		"/>
		
			<line fill="none" stroke="#CCCCCC" stroke-width="2" stroke-miterlimit="10" x1="188.65" y1="483.564" x2="193.294" y2="483.564"/>
		
			<line fill="none" stroke="#CCCCCC" stroke-width="2" stroke-miterlimit="10" x1="188.65" y1="502.782" x2="193.294" y2="502.782"/>
		
			<line fill="none" stroke="#CCCCCC" stroke-width="2" stroke-miterlimit="10" x1="188.65" y1="522.001" x2="193.294" y2="522.001"/>
		
			<line fill="none" stroke="#CCCCCC" stroke-width="2" stroke-miterlimit="10" x1="206.911" y1="535.574" x2="206.911" y2="540.219"/>
		
			<line fill="none" stroke="#CCCCCC" stroke-width="2" stroke-miterlimit="10" x1="226.173" y1="535.574" x2="226.173" y2="540.219"/>
		
			<line fill="none" stroke="#CCCCCC" stroke-width="2" stroke-miterlimit="10" x1="245.434" y1="535.574" x2="245.434" y2="540.219"/>
		
			<line fill="none" stroke="#CCCCCC" stroke-width="2" stroke-miterlimit="10" x1="264.694" y1="535.574" x2="264.694" y2="540.219"/>
		
			<line fill="none" stroke="#CCCCCC" stroke-width="2" stroke-miterlimit="10" x1="283.956" y1="535.574" x2="283.956" y2="540.219"/>
		
			<line fill="none" stroke="#CCCCCC" stroke-width="2" stroke-miterlimit="10" x1="303.217" y1="535.574" x2="303.217" y2="540.219"/>
	</g>
</g>
</svg>
